<?xml version="1.0" encoding="UTF-8" standalone="no"?>
<!-- Created with Inkscape (http://www.inkscape.org/) -->

<svg
   version="1.1"
   id="svg1"
   width="349.55157"
   height="204.30595"
   viewBox="0 0 349.55157 204.30595"
   xmlns="http://www.w3.org/2000/svg"
   xmlns:svg="http://www.w3.org/2000/svg">
  <defs
     id="defs1" />
  <g
     id="g1"
     transform="translate(-1.3778996,-5.757968)">
    <g
       id="g2"
       transform="translate(-0.3515934,1.7579678)">
      <path
         style="fill:#cfcfcf"
         d="M 16.654755,208 H 9.3095109 L 8.7149791,189.92485 8.1204472,171.84969 8.6672124,170.42485 9.2139776,169 H 16.606989 24 v 19.5 19.5 z m 19.823652,0 H 28.956814 L 29.228407,188.75 29.5,169.5 l 8,-0.2351 8,-0.23509 8,9.0467 8,9.04671 0.287526,-9.06161 L 62.075052,169 H 69.037526 76 v 19.5 19.5 h -7.101829 -7.101828 l -8.853997,-9.25 -8.853998,-9.25 -0.04417,9.25 L 44,208 Z M 94.25,207.72872 81,208.23166 v -19.51764 -19.51765 l 5.75,-0.62249 5.75,-0.62249 7.5,0.88732 7.5,0.88732 5.11826,2.20346 5.11826,2.20345 3.2731,3.37698 3.2731,3.37699 0.47467,4.93996 0.47466,4.93997 -1.1718,3.55061 -1.17181,3.55061 -3.87344,3.49943 -3.87344,3.49942 -3.82078,1.17943 -3.82078,1.17943 z m 6.467,-11.00029 4.71701,-0.53167 2.28299,-2.65415 2.283,-2.65414 v -2.00998 -2.00997 l -1.02964,-1.92391 -1.02965,-1.92391 -2.92069,-1.51035 L 102.09932,180 H 99.04966 96 v 8.63005 8.63005 z M 146.60083,208 h -18.39917 l -0.37569,-17.25 -0.3757,-17.25 0.39144,-2.25 0.39144,-2.25 H 146.61658 165 v 5.5 5.5 H 154.5 144 v 1.96379 1.96379 l 9.75,0.28621 9.75,0.28621 v 4.5 4.5 l -9.75,0.28621 -9.75,0.28621 V 196.03621 198 h 10.5 10.5 v 5 5 z m 29.30536,0 H 168 v -0.55121 -0.55121 l 7.5,-8.42976 7.5,-8.42976 v -0.93158 -0.93159 l -4.81208,-5.83744 -4.81208,-5.83745 -2.29701,-3.30758 -2.29701,-3.30757 0.44096,-0.44097 0.44097,-0.44096 7.48689,-0.63288 7.4869,-0.63287 4.43123,6.10227 4.43123,6.10226 0.75,0.0292 L 195,180 v -0.83589 -0.83589 l 3.63377,-4.66411 L 202.26755,169 H 209.63377 217 l -0.0337,1.25 -0.0337,1.25 -6.96628,8.46657 L 203,188.43314 v 0.65827 0.65827 l 7.10409,8.87516 7.1041,8.87516 -8.24419,0.29271 -8.24418,0.2927 -2.45492,-2.2927 -2.45493,-2.29271 -1.43066,-2.75 -1.43067,-2.75 h -0.97598 -0.97599 l -3.59214,5 -3.59214,5 z M 238,208 h -8 V 194.5 181 h -5.5 -5.5 v -6 -6 h 19.5 19.5 v 6 6 h -6 -6 v 13.5 13.5 z m 41.5,0 H 261 V 188.5 169 h 18.5 18.5 v 5.5 5.5 H 287.5 277 v 2 2 h 9.5 9.5 v 5 5 h -9.5 -9.5 v 2 2 h 10.5 10.5 v 5 5 z m 31.5,0 h -8 v -19.34803 -19.34804 l 10.25,-0.58388 10.25,-0.58388 4.5,0.39663 4.5,0.39662 3.13194,0.55846 3.13194,0.55845 3.98414,2.88609 3.98413,2.8861 0.51901,2.715 0.519,2.715 -0.90311,3.2708 -0.90311,3.27081 -3.23197,2.44935 -3.23197,2.44936 -1.45881,0.47519 -1.45881,0.47518 4.46754,4.93039 4.46754,4.9304 1.89626,2.25 1.89626,2.25 h -9.57523 -9.57522 l -4.77263,-6.5 -4.77264,-6.5 H 319.80713 319 v 6.5 6.5 z m 12.31194,-22 h 5.5452 l 1.57143,-1.57143 L 332,182.85714 V 182.5 182.14286 L 330.42857,180.57143 328.85714,179 H 323.92857 319 l -0.0136,1.25 -0.0137,1.25 -0.60298,2.25 -0.60297,2.25 z M 262,144.84735 l -6.5,-0.14701 -3,-0.36666 -3,-0.36665 -6.5,-1.04387 -6.5,-1.04387 -7,-2.08434 -7,-2.08435 -6,-2.96555 -6,-2.96555 -3.35481,-2.52058 -3.3548,-2.52058 -4.26421,-6.61917 -4.2642,-6.61917 -3.03205,-7 -3.03206,-7 -1.73071,-6.25 -1.73071,-6.25 -8.61823,0.005 -8.61822,0.005 -2.46496,8.245 -2.46495,8.245 -4.14124,8.5 -4.14124,8.5 -4.69876,5.20805 -4.69876,5.20805 -5.19504,2.94341 -5.19505,2.94341 -8.02366,2.51073 -8.02365,2.51073 -8.33292,1.21844 -8.33293,1.21843 L 87.643421,143.74967 72.5,143.2381 64,140.5279 l -8.5,-2.71019 -6.40613,-3.54511 -6.406129,-3.54511 -5.33792,-5.42392 -5.337919,-5.42392 L 24.755951,105.18258 17.5,90.48551 15.631459,85.695642 13.762918,80.905775 12.31003,79.452887 10.857143,78 H 8.583559 6.3099751 L 4.5653784,76.072242 2.8207817,74.144485 2.2810504,66.269969 1.7413191,58.395453 4.7919527,55.828514 7.8425864,53.261575 15.671293,51.15121 23.5,49.040845 l 14,-2.16048 14,-2.160481 L 77,44.609942 102.5,44.5 l 12,1.864921 12,1.864921 12,2.959843 12,2.959844 9.5,3.109075 9.5,3.109076 8,-0.06914 8,-0.06914 9.5,-3.012588 9.5,-3.012588 10.5,-2.577303 10.5,-2.577304 13.5,-2.216561 13.5,-2.216562 25,-0.0061 25,-0.0061 13,1.746899 13,1.746899 8,1.98002 8,1.980021 2.76272,1.097552 2.76272,1.097552 0.62278,2.481336 0.62277,2.481337 -0.54344,7.928697 -0.54345,7.928697 -1.19253,1.436915 -1.19254,1.436915 -3.45637,0.64842 -3.45637,0.648419 -1.38324,2.128043 -1.38325,2.128043 -2.6906,7.5 -2.6906,7.5 -5.20613,11.000001 -5.20613,11 -4.72393,5.2145 -4.72392,5.2145 -5.69884,3.46187 -5.69885,3.46186 -7.4904,2.48968 -7.4904,2.48967 -9,1.08114 -9,1.08115 z M 98.5,131.2932 l 6,-0.43885 8.5,-1.48677 8.5,-1.48677 6.64382,-3.0395 6.64381,-3.0395 3.51862,-3.65091 3.51861,-3.6509 3.5323,-6.5 3.53229,-6.5 1.66179,-8.5 1.66179,-8.5 -1.14859,-4.26313 -1.1486,-4.263129 -2.96558,-3.377606 -2.96557,-3.377607 -6.24235,-2.585274 -6.24234,-2.585275 -8,-1.958225 -8,-1.958224 -7.82236,-1.065765 L 99.855281,58 85.677641,58.007554 71.5,58.015108 65,59.036881 58.5,60.058653 52,62.101176 45.5,64.143699 42.254567,66.32185 39.009135,68.5 37.504567,71.651129 36,74.802258 36.007,79.651129 36.014,84.5 l 1.979394,8.256405 1.979393,8.256405 2.426614,4.78869 2.426614,4.78869 4.684868,5.2107 4.684868,5.2107 6.152118,3.36979 6.152119,3.36979 5,1.24121 5,1.24121 8,0.74923 8,0.74923 z M 89.509453,115.96959 87.5,115.93918 l -1.708467,-0.99604 -1.708466,-0.99603 0.58151,-1.72356 0.581509,-1.72355 -1.679747,2.25 -1.679747,2.25 H 80.388427 78.890261 L 72.695131,110.82795 66.5,106.65591 60.75,102.26951 55,97.883106 v -2.848435 -2.848434 l 4.75,-3.896864 4.75,-3.896863 5,-3.570685 5,-3.570684 4.346952,-2.195356 4.346951,-2.195355 1.532276,0.587989 1.532276,0.58799 -0.567394,4.230233 -0.567393,4.230232 -2.511209,2.001563 -2.51121,2.001563 -5.08798,3.852526 -5.08798,3.852527 1.286169,1.549739 1.28617,1.549739 5.501186,4.035019 5.501186,4.03501 0.333333,0.81272 L 84.166667,107 H 85.083333 86 v -1.94631 -1.94631 L 89.560212,89.303688 93.120424,75.5 l 1.520585,-2.338129 1.520586,-2.338129 2.669202,0.66604 2.669203,0.66604 1.5,1.303808 1.5,1.303809 2.5,0.746591 2.5,0.746591 4,1.997065 4,1.997064 8.25,5.352195 8.25,5.352195 v 3.326386 3.326387 l -6.75,5.088837 -6.75,5.08884 -5,3.03139 -5,3.03139 -2.85733,0.71116 -2.85734,0.71116 -0.72826,-1.17834 -0.72825,-1.17835 0.58559,-3.38553 0.58559,-3.38552 7.75,-5.05129 7.75,-5.051282 v -0.9132 -0.9132 l -1.51247,-0.580389 -1.51247,-0.580388 -6.91131,-4.511588 -6.91132,-4.511587 -0.46021,-1.765013 L 102.232,80.5 102.116,82.285992 102,84.071984 97.908205,98.196549 93.816409,112.32111 92.667658,114.16056 91.518906,116 Z M 264.5,131.5912 l 13,-0.40224 6.78305,-2.03335 6.78306,-2.03335 3.71694,-2.21502 3.71695,-2.21502 4.30897,-4.09611 4.30897,-4.09611 2.92101,-5.08673 2.921,-5.08672 2.12876,-8.913276 2.12877,-8.913274 0.1006,-6 0.1006,-6 -1.78047,-3.337887 -1.78047,-3.337888 -5.26854,-2.412019 -5.26854,-2.412019 -7.91033,-2.124855 L 287.5,58.750478 269,58.625239 250.5,58.5 l -7.5,1.354076 -7.5,1.354075 -7.5079,1.763978 -7.5079,1.763978 -5.11036,2.198417 -5.11036,2.198417 -3.3348,3.440641 -3.3348,3.440641 -0.40273,6.324801 -0.40274,6.324801 1.13829,5.483078 1.13828,5.483079 2.9226,6.179838 2.9226,6.17984 4.77511,5.10497 4.7751,5.10498 5.01981,2.58216 5.0198,2.58216 10.5,2.31475 10.5,2.31476 z m -6.84156,-15.31036 -1.15844,0.42454 -2.75,-0.93602 -2.75,-0.93603 -0.116,-2.16666 -0.116,-2.16667 -0.45719,1.74932 -0.4572,1.74932 -2.44106,0.61267 -2.44107,0.61266 -8.729,-5.86198 -8.729,-5.86199 -3.25674,-2.85359 L 221,97.792816 v -2.528331 -2.528331 l 3.61321,-3.407695 3.61321,-3.407695 5.63679,-3.823685 5.63679,-3.823685 5.20987,-2.720517 5.20987,-2.720517 1.04013,0.642837 L 252,74.118034 v 3.837391 3.837391 l -3.30243,2.899574 -3.30244,2.899575 -4.68613,3.365328 -4.68614,3.365328 1.23738,1.490955 1.23739,1.490955 5.50118,4.024859 5.50119,4.02485 0.88092,1.46803 0.88092,1.46803 3.23571,-12.985589 3.23572,-12.985585 1.68474,-5.07229 1.68475,-5.072291 1.47151,-0.564672 1.47151,-0.564672 5.72711,2.139124 5.72711,2.139125 3.5,1.952219 3.5,1.952219 4.5,2.571515 4.5,2.571515 4.25,2.862582 4.25,2.862581 v 3.395495 3.395494 l -3.75,3.037257 -3.75,3.037253 -4.39791,3.56374 -4.3979,3.56373 -4.31658,2.52968 -4.31657,2.52968 -2.28552,-0.3242 L 270.5,114.5 l -0.30446,-3.65101 -0.30447,-3.651 7.73741,-5.349 7.73741,-5.34899 0.34688,-1.089458 0.34687,-1.089458 -6.27982,-3.810522 -6.27982,-3.810522 -2.1445,-1.925225 -2.14451,-1.925226 -0.50416,0.825206 -0.50417,0.825205 -1.15035,4.5 -1.15035,4.5 -2.54403,8.5 -2.54402,8.5 -0.99851,2.67814 -0.99851,2.67815 z M 177.05902,72 H 189 l -8.9e-4,-0.75 -9e-4,-0.75 -12.41782,-0.02299 -12.41783,-0.02299 0.47774,0.772994 L 165.11803,72 Z M 14.808708,65.809932 17.482899,65.5 17.85019,63.566097 18.217481,61.632194 16.417611,60.316097 14.617741,59 h -0.737442 -0.737442 l -1.569446,1.569446 -1.569446,1.569446 1.065276,1.990486 1.065276,1.990486 z M 337.41274,66 h 2.34237 l 1.31446,-1.583823 1.31445,-1.583822 -1.04414,-1.666178 -1.04414,-1.666177 -2.34184,-0.34497 -2.34184,-0.34497 -1.26729,1.733111 -1.26728,1.73311 0.99644,1.861859 L 335.07037,66 Z M 347.8803,51 h -0.39921 l -1.13857,-1.823139 -1.13856,-1.823139 1.81274,-1.132078 1.81274,-1.132078 1.0026,1.208052 1.00259,1.208052 -1.27756,1.747165 L 348.27951,51 Z m -15.52298,-10.908641 -1.023,3.408641 -1.60126,-3.714409 -1.60126,-3.714408 -2.5659,-0.644 L 323,34.783184 V 33.891592 33 h 1.84501 1.84501 L 328.34501,31.171259 330,29.342519 V 27.671259 26 l 0.75,0.02164 0.75,0.02164 1.5,3.228357 1.5,3.228358 2.25,0.319551 2.25,0.319551 v 0.711211 0.711212 l -2.80984,1.060597 -2.80984,1.060597 z M 293.65302,34.502741 292.2401,40.5 291.71777,39 l -0.52234,-1.5 -1.22236,-4.730998 -1.22235,-4.730998 -1.19775,-0.994043 -1.19775,-0.994044 -5.33883,-1.366305 -5.33882,-1.366304 0.91121,-0.543301 0.91122,-0.543301 4.35577,-0.72112 4.35576,-0.72112 L 288,19 289.78847,17.211534 290.48213,13.105767 291.1758,9 h 0.81236 0.81236 l 1.20449,5.020876 1.20449,5.020876 1.85493,0.992728 1.85492,0.992727 4.54033,0.62232 L 308,22.271848 v 0.627425 0.627425 l -5.21686,1.23923 -5.21687,1.239229 -1.25016,1.250163 -1.25016,1.250162 z M 46.875,38 H 46 V 35.722506 33.445012 L 44.443296,31.222506 42.886592,29 H 40.443296 38 V 27.975 26.95 l 3.035516,-0.607103 3.035515,-0.607103 0.964485,-1.802156 L 46,22.131483 V 20.065741 18 h 0.971408 0.971408 l 0.821816,3.25 0.821816,3.25 3.206776,1.430467 L 56,27.360935 V 28.180467 29 h -1.928571 -1.928572 l -1.620536,1.620536 -1.620535,1.620535 -0.575893,2.879465 L 47.75,38 Z M 25.835184,37 h -0.764816 l -1.014171,-1.894995 -1.01417,-1.894995 1.352238,-1.122258 1.352239,-1.122258 1.626748,0.624242 L 29,32.213978 V 33.406989 34.6 L 27.8,35.8 26.6,37 Z M 128.97431,34 h -0.62568 l -2.17992,-2.320419 -2.17992,-2.320419 2.47629,-2.326355 2.47629,-2.326355 1.52931,1.269219 L 132,27.244889 V 29.422445 31.6 l -1.2,1.2 -1.2,1.2 z M 77.400085,21.699972 76.300171,22.06661 74.958074,20.449482 73.615978,18.832355 74.666975,17.166177 75.717973,15.5 H 77.108986 78.5 v 2.916667 2.916666 z M 108.25,19.978358 107.5,19.956715 106,16.728358 104.5,13.5 102.25,13.180449 100,12.860898 v -0.822041 -0.822041 l 2.6039,-0.653537 2.6039,-0.6535367 1.11534,-2.9548712 L 107.43848,4 H 108.21924 109 v 1.943296 1.9432961 l 2.22251,1.5567039 2.2225,1.556704 2.0275,0.08122 2.02749,0.08122 -2.60441,1.168781 L 112.29118,13.5 110.64559,14.872445 109,16.244889 V 18.122445 20 Z"
         id="path8" />
      <path
         style="fill:#aeaeae"
         d="M 16.25,207.79381 9,208.08762 V 188.5 168.91238 l 7.25,0.29381 7.25,0.29381 v 19 19 z M 37,208 H 30 V 188.5 169 l 7.25,-0.0286 7.25,-0.0286 8.71419,9.27858 8.714189,9.27857 0.03581,-9.25 L 62,169 h 7 7 V 188.5 208 H 69.11824 62.236481 L 53.11824,198.46215 44,188.92431 V 198.46215 208 Z m 53.146494,0 h -9.18968 L 81.228407,188.75 81.5,169.5 l 13,0.0406 13,0.0406 4.5,2.05121 4.5,2.05121 3.18325,2.69089 3.18325,2.69089 1.16905,3.54226 1.16905,3.54226 -0.65259,4.35175 -0.65258,4.35175 -2.22929,3.30804 -2.22928,3.30803 -3.91603,2.19664 -3.91603,2.19663 -6.13631,1.0686 L 99.336174,208 Z M 97.25,197.99442 l 1.25,-0.006 3.81493,-1.05936 3.81494,-1.05936 1.93506,-1.93506 L 110,192 v -3.06574 -3.06574 l -0.97889,-1.82908 -0.97889,-1.82907 -3.17033,-1.10519 L 101.70155,180 H 98.850777 96 v 9 9 z M 146.5332,208 h -18.57639 l 0.2716,-19.25 L 128.5,169.5 h 18 18 l 0.30479,4.75 0.30479,4.75 -8.80479,0.0137 -8.80479,0.0137 -2.25,0.60298 -2.25,0.60297 V 182.11663 184 h 10 10 v 5 5 h -10 -10 v 1.96617 1.96617 l 10.75,0.28383 10.75,0.28383 0.30479,4.75 0.30479,4.75 z m 29.12459,0 h -7.90268 l 1.37245,-1.69587 1.37244,-1.69587 6.2422,-7.05413 6.24219,-7.05413 0.008,-1.28473 0.008,-1.28474 -6.91654,-8.71526 -6.91655,-8.71527 0.66655,-0.62233 0.66654,-0.62234 7.06063,-0.61705 7.06063,-0.61704 4.22383,5.98938 L 193.0693,180 h 0.79933 0.79932 l 3.788,-5.5 3.78799,-5.5 H 209.62178 217 v 0.81858 0.81858 l -7,8.6532 -7,8.6532 0.0249,1.27822 0.0249,1.27822 6.97177,8.5 6.97178,8.5 -8.24664,0.29912 -8.24664,0.29912 -2,-2.43221 -2,-2.4322 -2.5,-3.16885 -2.5,-3.16886 -3.96977,5.55194 L 183.56047,208 Z M 238.5,208 H 231 l -0.0524,-0.75 -0.0524,-0.75 0.10094,-12.69865 0.10095,-12.69864 -5.79858,-0.30136 L 219.5,180.5 v -5.5 -5.5 h 19 19 v 5.5 5.5 l -5.75,0.2999 -5.75,0.29991 V 194.5499 208 Z m 41.05479,0 H 261 v -19.52256 -19.52256 l 18.25,0.27256 18.25,0.27256 0.30159,4.6716 0.30159,4.6716 -5.35426,0.66897 -5.35426,0.66897 -5.44733,-0.34057 L 276.5,179.5 l -0.31955,2.25 -0.31955,2.25 h 10.12434 10.12434 l -0.30479,4.75 -0.30479,4.75 -9.75,0.28621 -9.75,0.28621 v 1.92996 1.92996 l 10.75,0.28383 10.75,0.28383 0.30479,4.75 0.30479,4.75 z m 30.92362,0 h -7.5216 l 0.2716,-19.25 L 303.5,169.5 h 16.5 16.5 l 4.21656,2.25327 4.21657,2.25326 1.03343,1.93099 1.03344,1.931 v 3.01869 3.01868 l -1.05495,2.31538 -1.05496,2.31537 -3.25692,2.23168 L 338.37624,193 h -1.2911 -1.29111 l 6.10299,6.88384 L 348,206.76768 V 207.38384 208 l -8.75,-0.0456 -8.75,-0.0456 -4.86054,-6.45435 L 320.77893,195 H 320.01446 319.25 l -0.625,3.125 -0.625,3.125 v 3.375 3.375 z m 11.45649,-21 h 3.9349 l 2.59073,-0.98499 2.59072,-0.98499 0.63686,-1.65962 0.63685,-1.65962 -1.85361,-1.35539 L 328.61774,179 H 323.30887 318 v 4 4 z M 267.5,144.35825 l -8,0.46303 -10.19304,-1.33436 -10.19304,-1.33435 -7.80696,-2.13479 -7.80696,-2.13479 -7.13224,-3.42243 -7.13223,-3.42243 -5.12026,-5.60238 -5.12026,-5.60238 -3.71494,-7.66669 -3.71495,-7.66668 -3.03256,-9 -3.03256,-9 h -8.44867 -8.44868 l -3.60579,10.5 -3.60578,10.5 -2.7227,5.5 -2.72269,5.5 -3.52095,4.8029 -3.52095,4.8029 -6.11525,3.95248 -6.11524,3.95247 -9.08665,2.89892 -9.08665,2.89892 -9,1.09289 -9,1.09289 -8.5,-0.017 -8.5,-0.017 -7,-0.99732 -7,-0.99732 -6.5,-2.1067 -6.5,-2.1067 -6.763567,-3.50717 -6.763567,-3.50716 -5.4296,-5.86462 -5.4296,-5.86462 -3.806833,-7.21729 L 24.5,104.57419 18.781732,92.037097 13.063464,79.5 11.781732,78.809561 10.5,78.119122 7.7788646,77.547754 5.0577292,76.976385 4.0447079,75.083537 3.0316866,73.19069 2.3805898,66.185144 1.729493,59.179598 4.2408413,56.66825 6.7521897,54.156901 13.606739,52.039747 20.461287,49.922592 32.480644,47.957363 44.5,45.992133 63.861254,44.831261 83.222509,43.67039 97.361254,44.842621 111.5,46.014851 l 11,2.005542 11,2.005543 9.5,2.553743 9.5,2.553742 9.5,3.035246 9.5,3.035246 8,-0.520214 8,-0.520214 6,-2.122195 6,-2.122195 11.5,-2.88985 11.5,-2.88985 11.56381,-2.080856 11.56382,-2.080856 15.73766,-1.000401 15.73767,-1.000401 17.33681,0.991852 17.33682,0.991853 9.86171,1.580239 9.8617,1.58024 8.31869,2.079481 8.31868,2.079481 1.57185,2.398932 1.57184,2.398932 -0.68204,8.178177 -0.68203,8.178178 -1.56219,1.726196 -1.56218,1.726197 -2.9302,0.643578 -2.93019,0.643578 -1.46056,2.229106 -1.46057,2.229105 -5.41214,13.433997 -5.41214,13.433997 -2.78694,5 -2.78694,5 -3.05647,3.8661 -3.05647,3.86611 -5.38281,3.86243 -5.38281,3.86242 -7.61719,2.91189 -7.61719,2.91188 -7,1.05719 -7,1.05719 z m -170,-12.98163 10,-0.48592 8.66771,-1.88305 8.66771,-1.88304 4.1817,-2.13335 4.18171,-2.13334 4.39948,-4.0553 4.39948,-4.0553 2.93937,-5.13749 2.93938,-5.1375 2.17997,-7.946057 2.17997,-7.946061 -0.53437,-5.177588 -0.53438,-5.177587 -1.61175,-3.116784 -1.61175,-3.116784 -3.72212,-2.438205 L 140.5,67.11506 133,64.633707 125.5,62.152355 117.69207,60.555503 109.88413,58.958651 96.898065,57.91733 83.911998,56.87601 72.225918,58.026995 60.539839,59.17798 52.519919,61.706172 44.5,64.234365 41.734911,66.196021 38.969823,68.157677 37.484911,71.029178 36,73.90068 l 0.01736,5.79966 0.01736,5.79966 1.402221,6.61528 1.40222,6.615279 3.525652,7.001011 3.525651,7.00101 4.515934,4.51593 4.515933,4.51593 4.288831,2.4811 4.288831,2.48109 5.259618,1.72025 5.259619,1.72024 6.740381,0.84772 L 87.5,131.86255 Z M 89.193296,115.92105 87.5,115.84211 86.25,115.33772 85,114.83333 v -2.21191 -2.21192 l 2.021311,-9.45475 2.02131,-9.45475 2.730823,-9.5 2.730823,-9.5 2.336601,-0.331179 2.336601,-0.331179 8.661261,4.169251 8.66127,4.169252 8.2891,5.161927 8.2891,5.161928 0.60815,2.404777 0.60816,2.404776 -0.98822,1.595224 -0.98823,1.595223 -4.90903,3.79982 -4.90903,3.79981 -6.55817,3.95019 L 109.38367,114 H 106.69183 104 l 0.049,-3.75 0.049,-3.75 8.45097,-5.34548 8.45098,-5.345474 -0.52114,-0.843222 -0.52114,-0.843223 -5.49569,-3.144312 -5.49568,-3.144313 -3.32479,-3.166988 L 102.31679,81.5 98.012524,96.735751 93.708261,111.9715 92.297427,113.98575 90.886592,116 Z M 80.498083,115 H 79.396165 L 69.948083,108.57151 60.5,102.14301 57.625258,99.136585 54.750516,96.130158 55.371344,93.656585 55.992171,91.183012 63.246086,85.730223 70.5,80.277434 l 5,-3.049385 5,-3.049384 L 83,73.839332 85.5,73.5 85.201766,78 84.903532,82.5 82.907051,84 80.91057,85.5 75.455285,89.804941 70,94.109883 v 0.864826 0.864827 l 7,5.091374 7,5.09137 v 3.28886 3.28886 l -1.2,1.2 -1.2,1.2 z m 180.804507,16.92964 11.8026,0.0704 7.1974,-1.62552 7.19741,-1.62552 5.83221,-2.93037 5.83221,-2.93038 4.19318,-4.19411 4.19317,-4.1941 2.81355,-5 2.81355,-5 1.97902,-7.5 1.97903,-7.5 0.18204,-8.163481 0.18204,-8.163481 -2.1033,-2.830325 -2.10329,-2.830325 -4.39671,-2.246634 -4.3967,-2.246634 -8,-2.205168 -8,-2.205169 -21,-0.0064 -21,-0.0064 -12.5,2.690251 -12.5,2.69025 -7.49648,3.761725 L 206.50703,71.5 204.50352,75 202.5,78.5 l 0.1975,7.198435 0.1975,7.198434 2.45707,7.065301 2.45707,7.0653 3.22467,5.02522 3.22468,5.02522 4.20041,3.44193 4.20042,3.44192 4.82921,2.13619 4.82922,2.13619 8.59112,1.81257 8.59113,1.81257 z m -4.80985,-16.1419 -2.00725,0.28774 -1.7722,-1.29586 -1.77219,-1.29586 1.4392,-7.49188 1.4392,-7.49188 2.98508,-11.119234 2.98508,-11.119234 1.20197,-2.2459 1.20197,-2.245899 3.6532,0.590022 3.6532,0.590022 7,3.476675 7,3.476675 8.25,5.099802 8.25,5.099802 -0.0153,2.698635 -0.0153,2.698634 -0.73468,1.126058 -0.73469,1.126059 -7,5.726663 -7,5.72667 -4,2.32887 -4,2.32886 -2.75,0.67682 -2.75,0.67682 0.0338,-4.35841 0.0338,-4.35841 7.9662,-5.34675 L 287,95.806491 286.98041,95.153245 286.96082,94.5 278.27258,89 l -8.68823,-5.5 -0.66976,-0.292527 -0.66975,-0.292528 -2.21286,8.792528 L 263.81911,100.5 261.15956,108 258.5,115.5 Z M 246.47144,115 h -1.12855 l -4.92145,-3.17839 -4.92144,-3.17839 -6.70117,-4.88006 -6.70116,-4.880069 -0.61622,-1.941546 L 220.86522,95 l 0.63593,-2.003625 0.63593,-2.003625 9.68146,-6.873703 L 241.5,77.245344 244.70034,75.622672 247.90068,74 H 249.95034 252 l -0.0137,2.25 -0.0137,2.25 -0.59211,2.208443 -0.59211,2.208442 -7.39423,5.565349 L 236,94.047583 v 0.895977 0.895976 l 7,5.091374 7,5.09137 v 3.28886 3.28886 l -1.2,1.2 -1.2,1.2 z M 180.5,72.2648 l 8,-0.46615 0.75952,-0.70884 0.75951,-0.70884 L 177.00952,70.34476 164,70.308546 v 0.788229 0.788229 l 4.25,0.422973 4.25,0.422972 z M 16.310684,65.814173 18.121369,64.864678 17.810684,62.784466 17.5,60.704255 15.75,59.607242 14,58.51023 12.25,59.607242 10.5,60.704255 10.179637,62.858323 9.8592744,65.012391 12.179637,65.888029 14.5,66.763668 Z M 337.13717,67 h 0.99431 L 340.06574,65.964816 342,64.929632 V 63.164816 61.4 l -1.2,-1.2 -1.2,-1.2 h -2.1 -2.1 l -1.2,1.2 -1.2,1.2 v 1.228571 1.228572 l 1.57143,1.571428 L 336.14286,67 Z m 10.92626,-17 h -0.81854 l -1.14797,-1.383217 -1.14797,-1.383217 1.69274,-0.649566 1.69274,-0.649565 0.94566,0.94565 0.94565,0.94565 -0.67189,1.087133 L 348.88197,50 Z M 332.61687,39.059878 331.25376,42.301759 329.87245,39.40088 328.49113,36.5 326.24557,35.512872 324,34.525743 V 33.762872 33 h 2.08686 2.08687 l 1.13237,-3 1.13238,-3 H 331 h 0.56152 l 1.13238,3 1.13237,3 H 335.91314 338 v 0.883369 0.883368 l -2.01001,0.52563 -2.01001,0.525629 z M 293.50169,33.541524 292.20669,38.5 291.6793,37 l -0.52739,-1.5 -1.12711,-3.670008 -1.1271,-3.670008 -1.50466,-1.24875 -1.50465,-1.24875 -4.69419,-1.227898 -4.6942,-1.227899 1.5,-0.52543 1.5,-0.525431 3.72126,-0.617834 3.72126,-0.617834 1.52386,-2.175623 1.52387,-2.175622 0.61824,-3.295502 0.61824,-3.2955014 0.88663,-0.5479718 L 293,8.881966 v 1.692997 1.692998 l 1.14402,3.8184 1.14402,3.8184 3.0052,1.04762 L 301.29845,22 H 304.14922 307 v 0.872192 0.872192 l -3.88014,0.620459 -3.88014,0.62046 -2.22152,1.798872 -2.22151,1.798873 z M 48.342177,34.095896 47.184354,37.5 46.520026,35.5 45.855697,33.5 45.085608,32 44.315518,30.5 41.583727,29.159951 38.851936,27.819903 42.132001,26.159951 45.412067,24.5 46.332418,21 l 0.92035,-3.5 1.15239,4 1.15239,4 3.471226,1.157823 3.471226,1.157823 -2,0.664328 -2,0.664329 -1.5,0.773744 -1.5,0.773744 z M 25.84617,36 h -0.90894 l -0.601397,-1.567217 -0.601398,-1.567218 1.090401,-1.090401 1.090401,-1.090401 1.554713,1.290297 1.554712,1.290297 -1.134776,1.367322 L 26.755111,36 Z m 104.87825,-3.637797 -1.27558,1.744463 -2.16577,-2.305355 -2.16577,-2.305356 1.84705,-2.448687 1.84704,-2.448687 1.59431,1.323154 1.5943,1.323154 v 1.686426 1.686426 z m -53.406716,-10.629766 -1.182295,0.389093 -1.160345,-2.168124 -1.160345,-2.168125 1.025423,-1.025423 1.025423,-1.025423 1.637354,0.628312 1.637355,0.628311 -0.320137,2.176143 L 78.5,21.343344 Z M 108,19 h -0.78318 l -0.63634,-2.53537 -0.63634,-2.535369 -2.67979,-1.018856 -2.6798,-1.018855 2.45773,-1.213528 L 105.5,9.4644948 106.48713,7.2322474 107.47426,5 h 0.65446 0.65446 l 0.62111,2.4746995 0.62111,2.4746995 3.2373,0.839578 3.2373,0.839579 -3.21481,1.121436 -3.21482,1.121437 -0.64359,2.564285 L 108.78318,19 Z"
         id="path7" />
      <path
         style="fill:#909090"
         d="M 15.978407,208 H 8.9568144 L 9.2284072,188.75 9.5,169.5 16.25,169.20431 23,168.90862 V 188.45431 208 Z m 20.749839,-0.20381 -6.771755,0.29618 0.271755,-19.29618 L 30.5,169.5 l 7.211697,0.0621 7.211697,0.0621 8.288303,8.86628 L 61.5,187.35669 62,178.42835 62.5,169.5 h 6.5 6.5 l 0.271593,19.25 0.271593,19.25 H 69.101172 62.159159 L 53.329579,198.39198 44.5,188.78397 44,198.14198 43.5,207.5 Z m 57.545799,-0.0695 -12.225955,0.56221 -0.548,-1.42807 -0.548001,-1.42807 0.273956,-17.96638 L 81.5,169.5 h 12 12 l 5,1.91206 5,1.91205 3.16208,2.38957 3.16207,2.38957 1.64733,4.11706 1.64732,4.11706 -0.67765,4.08132 -0.67765,4.08131 -1.28428,2.5 -1.28428,2.5 -3.13478,2.30752 -3.13478,2.30753 -4.21269,1.52471 -4.21269,1.52472 z m 6.101195,-10.17223 3.87525,-0.61815 1.95613,-1.04689 1.95614,-1.04689 1.26381,-3.00571 1.2638,-3.00571 -0.48028,-2.51241 -0.48027,-2.51241 -3.11491,-1.8994 -3.11491,-1.89941 -3.633369,-0.004 -3.633368,-0.004 -0.602977,2.25 -0.602977,2.25 -0.01365,6.08333 -0.01365,6.08334 0.75,0.75297 0.75,0.75297 z M 146.5,208 H 128 v -18.87219 -18.87219 l 3.75,-0.52902 3.75,-0.52901 14.5,0.15121 14.5,0.1512 0.30339,4.71563 0.30338,4.71562 -10.80338,0.28438 L 143.5,179.5 l -0.31955,2.25 -0.31955,2.25 h 10.12434 10.12434 l -0.30479,4.75 -0.30479,4.75 -9.8147,0.28699 -9.81471,0.28699 0.31471,2.21301 0.3147,2.21301 10.75,0.28383 10.75,0.28383 V 203.53383 208 Z m 29.44127,0 H 169 l 0.0406,-0.75 0.0406,-0.75 2.70936,-3.10455 2.70936,-3.10455 4.82006,-5.58527 4.82007,-5.58528 -7.1865,-9.11041 -7.18649,-9.11041 0.6826,-0.68261 0.6826,-0.6826 6.52265,-0.54733 6.52266,-0.54732 5.01226,6.29899 5.01226,6.299 2.92808,-4.42059 2.92808,-4.42059 1.37834,-1.14392 1.37833,-1.14391 7.0188,0.29567 7.0188,0.29568 -7.47635,9.26451 -7.47635,9.26451 0.53416,0.86429 0.53416,0.86428 6.51589,7.83723 L 216,206.43206 V 207.21603 208 h -7.95751 -7.95751 l -3.79249,-5.46206 -3.79249,-5.46205 -0.51317,-0.0379 -0.51317,-0.0379 -4.29556,5.5 -4.29555,5.5 z M 238.25,207.79381 231,208.08762 v -13.41464 -13.41465 l -6,-0.67882 -6,-0.67882 V 174.95034 170 h 19.5 19.5 v 4.89301 4.89301 l -1.58179,0.60699 L 254.83643,181 h -4.38919 -4.38919 L 245.77903,194.25 245.5,207.5 Z M 279.47841,208 h -18.5216 l 0.2716,-19.19389 0.27159,-19.19389 14,-0.2308 14,-0.23079 4.25,0.53823 4.25,0.53823 v 4.35262 4.35263 l -10.75,0.28383 -10.75,0.28383 -0.3147,2.21301 -0.31471,2.21301 9.81471,0.28699 L 295.5,184.5 v 4.46676 4.46676 l -9.5,0.10616 -9.5,0.10615 -0.31492,2.14174 -0.31492,2.14174 2.6607,0.66779 2.66069,0.66779 6.00094,-0.62722 6.00095,-0.62722 2.40328,0.60318 L 298,199.21682 V 203.60841 208 Z m 31.68826,0 h -6.83334 L 303.66667,207.33333 303,206.66667 v -18.18873 -18.18873 l 6.75,-0.6375 6.75,-0.63749 7.5685,-0.007 7.5685,-0.007 5.10645,1.51645 5.10645,1.51646 2.57505,3.06027 2.57505,3.06027 v 3.28842 3.28841 l -2.09018,2.65724 -2.09018,2.65723 -3.40499,1.74686 -3.40498,1.74687 5.99516,6.64257 5.99517,6.64257 v 0.62713 0.62712 l -8.66935,-0.28894 -8.66935,-0.28893 -4.66438,-6 -4.66438,-6 -1.66627,-0.32332 L 318,194.85335 V 201.42668 208 Z m 11.72255,-21 h 4.88921 l 2.36079,-1.93735 L 332.5,183.1253 331.39602,181.31265 330.29205,179.5 324.14602,179.20228 318,178.90457 V 182.95228 187 Z M 96.5,143.46673 l -14,0.43288 -5.961082,-0.94021 -5.961082,-0.94021 -5.538918,-1.58673 L 59.5,138.84574 52,135.27392 44.5,131.7021 38.323706,125.41771 32.147413,119.13333 24.005436,102.31666 15.863459,85.5 14.18173,82 12.5,78.5 10,78.162338 7.5,77.824676 5.3830411,75.863009 3.2660821,73.901343 2.616357,67.559654 1.9666319,61.217964 2.940355,58.656878 3.9140782,56.095792 6.7776227,54.614996 9.6411673,53.134199 17.570584,51.143408 25.5,49.152617 l 10,-1.533372 10,-1.533372 18.503309,-1.105553 18.503309,-1.105554 14.006383,1.053905 14.006379,1.053904 10.49031,1.92762 10.49031,1.92762 10,2.538528 10,2.538527 9.87299,3.042565 L 171.24598,61 h 6.32539 6.32539 l 7.80162,-2.432176 7.80162,-2.432177 9.80024,-2.638279 9.80025,-2.638278 13.69975,-2.517406 13.69976,-2.517406 24.67771,-0.522873 24.67771,-0.522872 11.60356,1.133027 11.60356,1.133028 12.55972,2.499076 12.55971,2.499077 2.77532,1.435175 2.77533,1.435176 0.58531,2.926548 0.58531,2.926548 -0.59647,7.114676 -0.59647,7.114676 -1.49639,1.25223 -1.4964,1.25223 -3.60608,1.031288 -3.60608,1.031288 -6.04962,14.968712 -6.04963,14.968712 -3.23768,6.05356 -3.23767,6.05357 -5.15181,5.23346 -5.15181,5.23347 -8.68396,4.3472 -8.68396,4.34721 -9.72212,1.7505 -9.72211,1.75051 -14.15749,-0.53705 -14.15749,-0.53706 -7.01557,-1.53462 -7.01556,-1.53462 -7.48444,-2.67109 -7.48443,-2.6711 -3.5,-2.05113 -3.5,-2.05113 -2.855,-2.59084 -2.855,-2.59084 -3.74287,-5.5 -3.74286,-5.5 -2.63862,-6 -2.63862,-6 -2.76352,-8 -2.76351,-8 h -8.4295 -8.42951 l -3.63819,10.5 -3.63819,10.5 -2.7355,5.32172 -2.73549,5.32172 -3.389,4.71725 -3.389,4.71724 -4.58321,3.29141 -4.58321,3.29141 -6.16356,2.50448 -6.16356,2.50448 -8.56104,1.93207 -8.56104,1.93206 z m 171.5,-11.25766 7.5,-0.48356 7.33954,-1.84474 7.33954,-1.84475 5.87724,-3.57023 5.87723,-3.57023 3.59343,-4.19778 3.59343,-4.19778 2.91961,-6 2.9196,-6 1.52019,-8.88099 L 318,82.738019 v -4.221126 -4.221127 l -2.27957,-3.382655 -2.27957,-3.382656 -3.932,-2.205595 -3.93201,-2.205596 -9.03842,-2.309632 L 287.5,58.5 267,58.53387 l -20.5,0.03387 -9,1.754079 -9,1.754078 -6.42926,2.033182 -6.42926,2.033181 -3.69495,1.885024 -3.69495,1.885023 -2.56523,3.048604 -2.56523,3.048604 -0.66907,4.461649 -0.66906,4.461649 1.1738,6.740459 1.1738,6.740459 3.28842,7.043139 3.28842,7.04314 4.07536,4.57287 4.07535,4.57287 5.92396,3.15744 5.92395,3.15743 6.89698,1.6027 6.89697,1.60271 8,0.7633 8,0.76331 z m -11.50726,-16.42133 -2.00725,0.28774 -1.69726,-1.28774 -1.69725,-1.28774 1.41846,-7.32338 1.41845,-7.323373 3.09779,-11.607719 3.09779,-11.607719 0.97345,-1.818904 L 262.07037,72 l 1.71481,0.01455 1.71482,0.01455 4.31622,1.50334 4.31622,1.50334 8.18378,4.638718 8.18378,4.638718 4,2.58403 4,2.584029 0.73469,1.009359 0.73468,1.009359 0.0153,2.203185 0.0153,2.203186 -6.75052,5.796816 -6.75052,5.79681 -4.99948,3.17921 -4.99948,3.1792 -2.75,0.6792 -2.75,0.67921 0.054,-4.35841 0.0541,-4.35841 7.63662,-5.07201 7.63663,-5.072001 0.34718,-1.041541 0.34718,-1.041541 -6.78785,-4.052173 -6.78785,-4.052172 -2.19727,-2.074109 -2.19727,-2.074108 -0.44784,0.739829 -0.44785,0.739829 -3.02908,10.5 -3.02909,10.499997 -1.8258,5.5 -1.8258,5.5 z m -8.18627,-1.98827 -1.80647,0.93027 -1.5,-0.50984 -1.5,-0.50985 -8.5,-5.81624 -8.5,-5.81623 -2.8297,-2.653165 -2.8297,-2.653161 0.65046,-2.635627 0.65047,-2.635627 0.67923,-0.619912 0.67924,-0.619912 7.5,-5.461477 7.5,-5.461477 4.58786,-2.668611 L 247.67572,74 h 1.69352 1.69353 l 0.43448,1.25 0.43448,1.25 -0.71586,3.246397 -0.71587,3.246396 -7,5.334329 -7,5.33433 v 1.350928 1.350929 l 6.5,4.628591 6.5,4.62859 0.30647,3.62435 0.30646,3.62435 z M 97,131.43722 l 11.5,-0.44968 6.91244,-1.47553 6.91244,-1.47553 6.24619,-2.92294 6.24619,-2.92295 3.92487,-4.04431 3.92487,-4.04431 3.08231,-5.80099 3.0823,-5.80098 1.5842,-6.144345 L 152,90.211311 v -4.637774 -4.637774 l -1.54773,-3.704234 -1.54773,-3.704234 -2.09457,-2.229569 -2.09457,-2.229569 -7.1077,-2.941239 L 130.5,63.18568 120.89442,61.12035 111.28884,59.05502 99.39442,57.928462 87.5,56.801903 78,57.441482 l -9.5,0.639579 -5.839929,1.01978 -5.83993,1.019781 -6.223156,1.922137 -6.223156,1.922138 -3.749534,3.267551 -3.749533,3.267552 -0.84654,3.814156 -0.846539,3.814157 0.955612,7.185843 0.955612,7.185844 1.590634,5 1.590633,5 2.006497,4 2.006497,4 3.606416,4.42421 3.606416,4.42421 5.813142,3.76639 5.813141,3.7664 4.848103,1.61028 4.848103,1.61028 6.338755,0.89256 L 85.5,131.88689 Z M 89.627555,115.884 88.5,115.768 86.75,115.31067 85,114.85335 v -1.8565 -1.8565 L 87.948606,98.320174 90.897211,85.5 92.809483,79 l 1.912272,-6.5 3.752295,0.124099 3.75229,0.124099 0.63683,0.99112 0.63683,0.99112 2.5,0.729511 2.5,0.729512 9.19009,5.029388 9.19009,5.029389 3.63548,3.329969 3.63548,3.329968 -0.32557,2.24523 -0.32557,2.24523 -5.5,4.258405 -5.5,4.25841 -5.75351,3.60572 -5.75351,3.60571 -3.49649,0.5674 -3.49649,0.5674 v -3.62494 -3.62495 l 8.5,-5.48343 8.5,-5.48342 v -0.516576 -0.516576 l -8.60555,-5.551515 -8.60555,-5.551516 -0.55894,-2.137381 -0.55894,-2.137381 -4.703585,16.671582 -4.70359,16.671583 -1.254367,1.51142 L 90.755111,116 Z M 103.60417,78.729167 104.20833,78.125 103.68311,76.8125 103.15789,75.5 103.07895,77.416667 103,79.333333 Z M 80.678571,114.98795 80.5,114.97591 76.358533,112.60758 72.217066,110.23925 64.858533,104.78806 57.5,99.33687 56.206941,97.764088 54.913881,96.191307 55.526672,93.749753 56.139463,91.3082 64.319731,85.299466 72.5,79.290731 77.087858,76.645366 81.675715,74 H 83.337858 85 l -0.01531,3.75 -0.01531,3.75 -0.734687,1.025334 -0.734687,1.025334 -7.27717,5.339465 -7.27717,5.339466 1.148795,1.384212 1.148794,1.384212 6.378376,4.551517 L 84,106.10105 v 2.87805 2.87804 L 82.428571,113.42857 80.857143,115 Z M 177.72084,72.748803 188.94169,72.59434 189.43946,71.29717 189.93723,70 H 176.96862 164 v 0.916667 0.916666 l 1.25,0.534967 1.25,0.534966 z M 14.55,66.969591 15.6,67 16.8,65.8 18,64.6 V 62.319052 60.038104 L 15.487014,59.407385 12.974028,58.776665 11.487014,60.010777 10,61.244889 v 1.827866 1.827865 l 1.75,1.019281 1.75,1.019282 z M 336.68819,67 h 1.44329 L 340.06574,65.964816 342,64.929632 V 63.164816 61.4 l -1.2,-1.2 -1.2,-1.2 h -2.78095 -2.78095 l -0.63072,2.512986 -0.63071,2.512986 1.23411,1.487014 L 335.24489,67 Z M 348,50 h -0.88197 l -0.67188,-1.087132 -0.67189,-1.087133 1.11287,-1.112867 L 348,45.6 l 1.11287,1.112868 1.11287,1.112867 -0.67189,1.087133 L 348.88197,50 Z m -15.58475,-11.103244 -1.08475,3.315355 -1.26596,-3.056291 -1.26595,-3.056292 -2.6493,-0.930567 -2.64929,-0.930567 2.76793,-1.101264 2.76794,-1.101264 1.05971,-2.767933 1.05972,-2.767933 1.31301,3.104777 1.31302,3.104776 2.35933,0.734254 2.35934,0.734254 -2.5,0.70167 -2.5,0.70167 z M 292,37 h -1 v -1.966073 -1.966073 l -1.62802,-3.413995 -1.62802,-3.413996 -3.738,-1.119931 L 280.26796,24 h -1.80065 -1.80064 l 0.5888,-0.588802 0.5888,-0.588803 4.31309,-0.969087 4.31309,-0.969087 1.74522,-1.579399 1.74521,-1.579398 0.63293,-3.373757 0.63292,-3.373757 0.88663,-0.547972 L 293,9.881966 v 1.909794 1.909793 l 1.04978,3.011388 1.04977,3.011387 2.49728,1.137836 L 300.09411,22 h 2.89393 2.89393 l 0.61803,1 0.61803,1 h -2.03878 -2.03878 l -3.95054,1.580693 -3.95054,1.580693 -1.06969,3.06853 L 293,33.298447 V 35.149223 37 Z M 25.84617,36 h -0.90894 l -0.601397,-1.567217 -0.601398,-1.567218 1.090401,-1.090401 1.090401,-1.090401 1.554713,1.290297 1.554712,1.290297 -1.134776,1.367322 L 26.755111,36 Z M 48.296719,33.302661 47.334323,36.5 45.774769,32.885416 44.215214,29.270831 41.357607,28.501402 38.5,27.731974 l 3.175514,-0.875278 3.175514,-0.875277 1.247985,-3.74071 1.247985,-3.740709 0.872628,3.317669 0.872627,3.317668 3.203874,1.372766 L 55.5,27.88087 52.379557,28.993096 49.259115,30.105322 Z M 129.5876,33 h -1.27762 l -1.57478,-1.75 -1.57478,-1.75 1.83008,-2.25 1.83009,-2.25 h 0.55452 0.55452 l 1.09059,2.037773 1.09058,2.037772 -0.62279,1.962228 L 130.86522,33 Z M 77.069551,21 H 75 v -2.573324 -2.573324 l 1.75,0.33354 1.75,0.333539 0.319551,2.239785 L 79.139102,21 Z m 31.037119,-2.565928 -0.89332,0.552106 -0.63461,-2.528458 -0.6346,-2.528459 -2.72207,-1.083828 -2.72207,-1.083827 2.6875,-0.943303 2.6875,-0.943303 0.89267,-2.6779984 0.89266,-2.6779984 1.4292,2.9904984 1.4292,2.9904984 2.36421,0.335744 2.3642,0.335744 -3.12357,1.899558 L 109,14.970603 v 1.455682 1.455681 z"
         id="path6" />
      <path
         style="fill:#6f6f6f"
         d="M 16.666667,208 H 10.333333 L 9.6666667,207.33333 9,206.66667 v -18.21811 -18.21811 l 5.296844,-0.6618 5.296843,-0.6618 1.703157,0.65357 L 23,170.21398 V 189.10699 208 Z M 36.75,207.79569 30,208.09138 V 189.04569 170 l 7.75,0.0224 7.75,0.0224 8,8.9104 8,8.9104 0.287526,-8.93278 L 62.075052,170 h 6.984539 6.98454 L 75.772065,188.75 75.5,207.5 l -6.588296,0.292 -6.588297,0.29201 -8.911703,-9.7157 L 44.5,188.65262 44,198.07631 43.5,207.5 Z m 53,0.19676 L 82,208 81.785993,194.25 81.571986,180.5 l 0.265516,-4.97282 0.265516,-4.97281 1.198491,-0.76187 1.198491,-0.76187 7.066341,-0.0153 7.06634,-0.0153 5.933659,1.08658 5.93366,1.08659 4.77511,2.58601 4.77511,2.58601 1.84643,3.07741 1.84643,3.0774 0.65692,2.78747 0.65691,2.78746 -1.11515,4.21254 -1.11515,4.21253 -2.66331,2.84158 -2.6633,2.84159 -3.62923,1.86713 -3.62924,1.86713 -6.37076,1.03373 -6.37077,1.0337 z M 98.032119,198 h 3.032121 l 3.21788,-1.3451 3.21788,-1.34509 1.45,-1.74835 1.45,-1.74836 v -3.42877 -3.42877 l -2.04904,-2.04905 -2.04904,-2.04904 -3.90096,-0.89786 L 98.5,179.06174 96.75,179.59826 95,180.13478 V 189.06739 198 Z m 49.134551,10 H 129.33333 L 128.66667,207.33333 128,206.66667 V 188.33333 170 h 18.5 18.5 v 4.5 4.5 h -11.06642 -11.06642 l 0.31642,2.75 0.31642,2.75 h 9.5 9.5 l 0.3057,4.21312 0.30569,4.21311 -9.80569,0.28689 -9.8057,0.28688 -0.31642,2.75 -0.31642,2.75 H 153.93358 165 v 4.5 4.5 z m 28.80094,0 H 169 v -0.6391 -0.6391 l 5.75,-6.45832 5.75,-6.45832 1.83587,-2.40596 1.83587,-2.40597 -7.20909,-9.04006 -7.20909,-9.04007 0.6769,-0.67689 0.6769,-0.6769 6.78545,-0.38341 6.78545,-0.38341 4.41087,6.0746 4.41087,6.07461 0.5,0.0274 0.5,0.0274 2.78023,-4.40086 2.78024,-4.40086 1.37726,-1.14302 1.37727,-1.14303 7.01106,0.29567 7.01105,0.29568 -7.3964,9 -7.3964,9 -0.0222,0.65148 -0.0222,0.65148 6.98097,8.34852 6.98097,8.34852 0.019,0.75 L 216,208 h -7.94002 -7.94002 l -3.80998,-5.48815 -3.80998,-5.48816 -0.62985,-0.0118 -0.62986,-0.0119 -4.15254,5.5 -4.15254,5.5 z M 238,208 h -7 V 194.60699 181.21398 L 229.41821,180.60699 227.83643,180 H 223.41821 219 v -5.02159 -5.0216 l 19.25,0.2716 19.25,0.27159 0.30279,4.70091 0.30278,4.70091 -6.30278,0.29909 L 245.5,180.5 l -0.0788,10.5 -0.0788,10.5 -0.17124,3.25 L 245,208 Z m 41.5,0 H 261 v -19 -19 h 18.5 18.5 v 4.5 4.5 h -11 -11 v 2.46379 2.46379 l 9.75,0.28621 9.75,0.28621 0.3075,4.25 0.3075,4.25 H 286.0575 276 v 3 3 h 11 11 v 4.5 4.5 z m 31.60699,0 h -6.89301 l -0.65066,-1.69558 -0.65065,-1.69558 0.68911,-17.19361 0.68912,-17.19361 11.3081,-0.70656 11.30809,-0.70655 4.29646,0.66564 4.29645,0.66565 3.21727,0.99685 3.21728,0.99685 2.53272,3.00998 2.53273,3.00997 v 3.28842 3.28841 l -2.09018,2.65724 -2.09018,2.65723 -3.42013,1.75463 -3.42013,1.75463 6.01031,6.7708 L 348,207.0956 V 207.5478 208 h -8.40872 -8.40872 l -5.10815,-6.5 -5.10815,-6.5 H 319.48313 318 v 6.5 6.5 z m 11.32791,-21 h 4.4349 l 2.5651,-0.97525 L 332,185.0495 v -2.41776 -2.41776 L 330.41821,179.60699 328.83643,179 H 323.41821 318 v 4 4 z M 96.5,143.42753 l -12,0.39385 -3.5,-0.43067 -3.5,-0.43066 -7.437608,-1.58998 -7.437609,-1.58997 -6.062391,-2.57194 -6.062392,-2.57195 -5.262274,-3.42349 -5.262275,-3.42349 -3.985449,-4.64461 -3.98545,-4.64462 -6.42653,-13 -6.426531,-13 L 15.927707,85.25 12.703923,78 H 9.9245417 7.1451603 L 5.0725801,75.365141 3,72.730283 V 65.404096 58.07791 L 4.9887243,56.225132 6.9774487,54.372353 12.238724,52.73554 17.5,51.098727 l 10,-2.001656 10,-2.001656 12,-1.03739 12,-1.03739 19.026234,-0.01032 L 99.552469,45 l 8.454301,1.06008 8.4543,1.06008 12.01947,2.44068 L 140.5,52.001519 155.47,56.50076 170.44,61 h 6.75076 6.75076 l 15.27924,-4.444147 15.27924,-4.444148 10.41005,-2.066275 10.41005,-2.066275 12.08995,-1.59982 12.08995,-1.59982 25.5,0.540154 25.5,0.540155 9.5,1.607056 9.5,1.607057 8.76554,2.049996 8.76553,2.049997 1.48447,1.484463 L 350,56.142857 v 8.737442 8.737442 l -1.25,1.655761 -1.25,1.655762 -3.97644,1.285368 -3.97645,1.285368 -6.65311,16.170912 -6.65311,16.170908 -3.59561,5.91902 -3.59561,5.91902 -5.04485,4.71886 -5.04485,4.71887 -7.35785,3.49423 -7.35785,3.49422 -9.37213,1.93385 -9.37214,1.93384 -10.17764,0.0131 -10.17764,0.0131 -7.67784,-1.06789 -7.67785,-1.06789 -7.34298,-1.87802 -7.34298,-1.87802 -7.79517,-3.60158 -7.79516,-3.60159 -4.75766,-5.06754 -4.75765,-5.06754 -4.49709,-8.98337 -4.49709,-8.98336 -2.63103,-8.438647 -2.63104,-8.438644 -8.51492,0.287046 -8.51493,0.287045 -0.76993,1.5 -0.76994,1.5 -2.14207,7 -2.14207,7 -3.85575,8.00935 -3.85576,8.00934 -4.19618,4.76711 -4.19617,4.7671 -4.14173,2.84237 -4.14173,2.84237 -7.47628,2.6913 -7.47628,2.69131 -7.52372,1.45671 -7.52372,1.45672 z m 170.5,-11.11531 8.5,-0.4898 6.39697,-1.4309 6.39698,-1.43091 5.84002,-3.1127 5.84003,-3.1127 4.57802,-4.89428 4.57802,-4.89427 2.87486,-6.22333 2.87486,-6.22333 1.56012,-7.707842 L 318,85.084317 v -5.14103 -5.141029 l -1.67851,-3.537205 -1.67852,-3.537205 -6.25986,-2.929345 -6.25987,-2.929345 -9.31162,-1.943925 -9.31162,-1.943924 -14.5,-0.04607 -14.5,-0.04607 -10.77478,1.534462 -10.77479,1.534462 -6.16736,1.598125 -6.16737,1.598125 -6.07879,2.756257 -6.0788,2.756256 -2.68926,3.196011 -2.68927,3.196011 -0.70046,3.720564 -0.70047,3.720563 1.0387,7.226933 1.03869,7.226933 3.5422,7.458849 3.54219,7.45885 4.27226,4.63486 4.27227,4.63487 4.05752,2.37006 4.05752,2.37007 7.67819,2.10024 7.67818,2.10024 7.82182,0.86005 7.82181,0.86007 z m -10.82185,-16.32753 -1.67815,-0.0153 -1.39928,-0.88596 -1.39929,-0.88597 0.64206,-5.46293 0.64206,-5.46294 2.97589,-11.461331 2.97588,-11.461333 1.30985,-3.924453 1.30986,-3.924453 3.47148,0.174501 3.47149,0.174501 10,5.100311 10,5.100312 5.5,3.725187 5.5,3.725188 0.29447,2.058607 0.29447,2.058607 -2.05162,2.608218 -2.05163,2.608218 -7.46919,5.62148 -7.4692,5.62148 -4.22939,1.89355 -4.2294,1.89356 -0.79425,-0.49088 L 271,113.88197 v -3.35774 -3.35774 l 8,-5.60575 8,-5.605747 V 95.081001 94.20701 l -7.48767,-4.666861 -7.48767,-4.666861 -1.40792,-2.010088 -1.40792,-2.010087 -0.56615,0.91604 -0.56614,0.91604 -2.98435,10.975781 -2.98434,10.975786 -2.12577,5.68162 L 257.8563,116 Z M 246.53157,114 h -2.25446 l -7.38855,-4.88073 -7.38856,-4.88072 -4.40133,-3.91739 -4.40133,-3.917384 1.40504,-2.931516 1.40504,-2.931515 6.99629,-5.24341 L 237.5,80.053926 243.13998,77.026963 248.77995,74 H 249.88998 251 v 4.307655 4.307656 L 243,88.5 l -8,5.884689 v 0.447413 0.447413 l 1.75,1.388807 1.75,1.388807 5.75,4.008701 5.75,4.00869 v 2.38095 2.38096 l -0.60699,1.58178 L 248.78602,114 Z M 96.5,131.44651 l 13,-0.42484 6.66308,-1.44042 6.66308,-1.44042 5.83692,-2.76098 5.83692,-2.76097 4.53878,-4.65925 4.53879,-4.65924 3.11435,-6.4002 3.11436,-6.40019 1.22656,-5.618505 1.22656,-5.618504 -0.44448,-6.144933 -0.44448,-6.144934 -2.02717,-2.736562 L 147.3161,71.5 144.06528,69.287137 140.81445,67.074275 135.15722,64.947523 129.5,62.820771 121,60.968103 l -8.5,-1.852668 -11,-1.185442 -11,-1.185443 -11.5,0.566596 -11.5,0.566596 -8,1.647447 -8,1.647448 -4.757279,2.039957 -4.757279,2.039957 -2.891159,3.292848 -2.891159,3.292848 -0.634781,3.830877 -0.63478,3.830876 1.5632,9 1.563199,9 3.435133,7.28033 3.435133,7.28033 5.374118,5.37412 5.374118,5.37412 5.910768,2.97511 5.910768,2.97511 5.5,1.11924 5.5,1.11924 2.5,0.43687 2.5,0.43688 z M 89.665449,116 h -1.28319 l -1.88285,-1.37677 -1.882851,-1.37678 1.804575,-8.37322 L 88.225709,96.5 89.67928,91 91.132852,85.5 93.108771,78.75 95.08469,72 h 2.023397 2.023396 L 101.06574,73.035184 103,74.070368 v 2.153209 2.153209 L 98.367162,94.438393 93.734323,110.5 92.341482,113.25 90.94864,116 Z m -9.670016,-2 H 78.390865 L 70.041998,108.28814 61.69313,102.57628 58.332439,99.40674 54.971747,96.2372 55.641108,94.3686 56.310469,92.5 57.405235,91.081565 58.5,89.66313 l 7,-5.162954 7,-5.162954 4.587858,-2.668611 L 81.675715,74 h 1.71964 1.719641 L 84.807498,78.221048 84.5,82.442096 l -7.806669,5.858207 -7.806669,5.858207 1.200658,1.446704 1.200657,1.446704 6.356012,4.666912 L 84,106.38574 v 2.60713 2.60713 l -1.2,1.2 -1.2,1.2 z m 25.984037,0 h -2.1002 l 0.31036,-3.69488 0.31037,-3.69487 5.0953,-3.05513 5.09529,-3.05512 3.35479,-2.589668 3.3548,-2.589668 -9.26439,-6.229357 -9.26438,-6.229357 0.66965,-3.180975 0.66965,-3.180975 0.64464,-0.68598 0.64465,-0.685981 6.9273,3.434035 6.92729,3.434034 6.41497,4.179516 6.41497,4.179516 0.90788,2.387905 0.90788,2.387905 -0.91744,1.714235 -0.91743,1.714236 -7.83271,5.602889 -7.83271,5.60289 -4.21016,2.1174 L 108.07968,114 Z M 177.36417,72.779207 189.3366,72.5 189.73281,71.306471 190.12902,70.112942 177.06276,69.806471 163.9965,69.5 l 0.002,1.083333 0.002,1.083334 0.69587,0.695873 0.69588,0.695873 z M 14.128571,67 h 1.728572 L 17.428571,65.428571 19,63.857143 V 63 62.142857 L 17.428571,60.571429 15.857143,59 H 14.128571 12.4 l -1.2,1.2 -1.2,1.2 v 1.6 1.6 l 1.2,1.2 1.2,1.2 z m 323.448989,0 h 2.17755 l 1.23411,-1.487014 1.23411,-1.487014 -0.60072,-2.393494 -0.60073,-2.393494 -2.17261,-0.568151 -2.17262,-0.568151 -1.83832,0.983843 L 333,60.070368 V 62.335184 64.6 l 1.2,1.2 1.2,1.2 z M 348,50 h -0.78602 l -0.56332,-1.467975 -0.56331,-1.467975 0.95632,-0.591042 0.95633,-0.591042 0.95633,0.591042 0.95632,0.591042 -0.56331,1.467975 L 348.78602,50 Z M 332.56821,38.1756 331.23297,41.3512 329.59081,38.1756 327.94864,35 h -1.5026 -1.50261 l 3.27829,-3.32778 3.27828,-3.32778 0.3497,1.07778 0.34971,1.07778 2.65029,2.245033 2.6503,2.245033 -1.79827,0.005 L 333.90345,35 Z M 26,36 H 25.118034 L 24.446149,34.912868 23.774265,33.825735 24.887132,32.712868 26,31.6 l 1.112868,1.112868 1.112867,1.112867 -0.671884,1.087133 L 26.881966,36 Z M 48.158911,33.181858 47.225322,36.5 46.006597,33.226364 44.787871,29.952729 42.247282,28.62158 l -2.540588,-1.331149 2.546726,-0.639187 2.546727,-0.639188 1.121932,-3.218377 1.121933,-3.218377 1.727994,3.433538 1.727994,3.433538 2.5,0.583564 2.5,0.583565 -3.203751,1.127104 -3.20375,1.127105 z M 291.90389,36 h -0.68131 l -0.62401,-3.326267 -0.62401,-3.326266 -1.30262,-1.781435 -1.30261,-1.781434 -4.93467,-1.281751 -4.93466,-1.28175 3,-0.691832 3,-0.691832 2.79081,-1.05694 2.7908,-1.05694 1.1666,-4.361776 1.1666,-4.361777 0.54259,0.0052 0.5426,0.0052 1.5,4.744751 1.5,4.744751 4.86811,1.201439 4.8681,1.201439 0.54856,0.548561 L 306.33333,24 h -2.19878 -2.19879 l -3.45684,1.444359 -3.45683,1.444359 -1.21845,4.555641 L 292.58519,36 Z m -162.54833,-3.285188 -1.00155,0.33385 -1.6851,-1.862017 -1.6851,-1.862017 2.03922,-1.845472 2.03923,-1.845472 1.70192,1.701922 1.70192,1.701921 -1.05449,1.671718 -1.0545,1.671717 z M 77.4375,20.6875 76.375,21.041667 75.6875,20.354167 75,19.666667 v -1.906658 -1.906657 l 1.75,0.337019 1.75,0.337019 v 1.902972 1.902971 z M 108,18 h -1 V 16.583407 15.166813 L 104.25,13.115087 101.5,11.06336 103.21806,11.03168 104.93613,11 106.29357,8.4092207 107.65102,5.8184414 109.34856,8.4092207 111.04611,11 l 1.72694,0.03168 1.72695,0.03168 -2.75,2.051727 -2.75,2.051726 V 16.583407 18 Z"
         id="path5" />
      <path
         style="fill:#4d4d4d"
         d="M 16.666667,208 H 10.333333 L 9.6666667,207.33333 9,206.66667 V 188.33333 170 h 7 7 v 19 19 z m 20.5,0 H 31.333333 L 30.666667,207.33333 30,206.66667 V 188.33333 170 l 7.75,0.045 7.75,0.045 8,8.93872 8,8.93872 0.287526,-8.98376 L 62.075052,170 h 6.984539 6.98454 L 75.772065,188.75 75.5,207.5 l -6.217367,0.29687 -6.217367,0.29687 -9.175041,-9.54687 L 44.715184,189 H 43.857592 43 v 9.5 9.5 z M 93.25,207.68879 82,208.30595 v -19.08102 -19.08102 l 5.25,-0.64521 5.25,-0.64521 8.30911,1.05261 8.30912,1.05261 4.19088,1.85385 4.19089,1.85385 3.25,3.70159 3.25,3.70159 v 5.51487 5.51486 l -1.46408,2.83122 -1.46409,2.83123 -3.08333,2.59446 -3.08334,2.59445 -5.20258,1.56047 -5.20258,1.56048 z M 98.814591,198 h 3.889639 l 3.38469,-2.28094 3.38468,-2.28093 0.94207,-2.67878 0.94207,-2.67877 -1.13333,-2.4874 -1.13334,-2.4874 -2.4478,-1.60386 -2.4478,-1.60386 -4.347734,-0.19903 L 95.5,179.5 95.212474,188.75 94.924948,198 Z m 47.912909,9.77317 -17.77249,0.27316 -0.50204,-1.3083 -0.50204,-1.30829 0.27453,-17.46487 L 128.5,170.5 h 18 18 v 4 4 l -10.75,0.28383 -10.75,0.28383 V 182.03383 185 h 10 10 v 4 4 h -10 -10 v 3 3 h 11.0575 11.0575 l -0.3075,4.25 -0.3075,4.25 z M 176.54506,208 h -6.21173 l -0.61231,-0.61231 -0.6123,-0.61231 7.44564,-8.36866 L 184,190.03806 v -0.77979 -0.77979 l -7.09264,-8.81327 -7.09264,-8.81327 0.47423,-0.47422 0.47423,-0.47423 6.86841,-0.57112 6.86841,-0.57112 4.43825,6.13996 4.43826,6.13995 0.72718,-0.27058 0.72718,-0.27058 3.42876,-5 3.42875,-5 7.15581,-0.29381 7.15581,-0.29381 -0.0337,0.79381 -0.0337,0.79381 -6.96628,8.46657 L 202,188.43314 v 0.71745 0.71744 l 7,8.49363 7,8.49364 V 207.42765 208 h -7.83378 -7.83378 l -3.788,-5.5 -3.78799,-5.5 h -0.75662 -0.75661 L 187,202.5 182.75678,208 Z m 61.89534,0 h -6.50317 l -0.45625,-1.25 -0.45624,-1.25 -0.26237,-12.5 -0.26237,-12.5 -5.24401,-0.30205 -5.24401,-0.30205 -0.58887,-2.34624 -0.58887,-2.34623 0.33288,-2.35172 L 219.5,170.5 238.25,170.22793 257,169.95587 v 4.97216 4.97216 l -5.75,0.29991 -5.75,0.2999 -0.27822,13.75 -0.27822,13.75 z m 41.49857,-0.22769 -17.56103,0.2723 -0.68897,-0.68897 L 261,206.66667 V 188.33333 170 h 18 18 v 4.5 4.5 h -10.56642 -10.56642 l 0.31642,2.75 0.31642,2.75 9.25,0.28753 9.25,0.28752 V 189.03753 193 h -9.5 -9.5 v 2.96617 2.96617 l 10.75,0.28383 10.75,0.28383 v 4 4 z m 30.81103,0.0234 -6.75,0.29569 v -18.90975 -18.90976 l 11.25,-0.65887 11.25,-0.65888 5.67452,0.95823 5.67453,0.95823 3.01477,1.559 3.01477,1.559 1.56071,2.22821 1.5607,2.22822 -0.004,2.5275 -0.004,2.52749 -2.01815,3.31018 -2.01816,3.31017 -3.52322,1.4721 -3.52322,1.47209 2.09168,2.93749 2.09167,2.93749 0.8804,0.54412 0.8804,0.54411 3.15707,3.98613 3.15707,3.98612 h -8.45486 -8.45487 l -4.87916,-6.47509 -4.87917,-6.4751 -1.70228,-0.0249 L 318.09543,195 317.79772,201.25 317.5,207.5 Z M 323.5,187 h 5.5 l 1.97732,-1.97732 1.97732,-1.97732 -0.56575,-1.47431 -0.56575,-1.47431 -3.34929,-1.10537 -3.34929,-1.10536 -3.56228,0.66828 L 318,179.22258 V 183.11129 187 Z M 96.900866,143.41836 85.5,143.93632 l -9.40772,-1.51654 -9.40772,-1.51655 -7.830198,-3.01964 -7.830197,-3.01964 -5.892913,-3.93514 -5.892913,-3.93513 -4.032866,-5.24684 L 31.172606,116.5 24.799437,103.5 18.426268,90.5 15.74172,84.25 13.057172,78 H 10.483131 7.9090909 L 5.4124212,75.50333 2.9157516,73.006661 3.2078758,65.289155 3.5,57.571649 6.7872126,55.360405 10.074425,53.149162 18.975998,51.059321 27.877571,48.96948 37.688786,47.440204 47.5,45.910928 71,45.324861 l 23.5,-0.586067 11,1.184876 11,1.184876 14,3.048338 14,3.048338 13,4.048506 13,4.048507 6.5,0.02499 6.5,0.02499 14.49555,-4.283609 14.49555,-4.28361 14.1441,-2.845554 14.14409,-2.845554 13.36036,-1.189732 13.36035,-1.189732 20.5,0.630447 20.5,0.630446 10,1.511983 10,1.511984 9.19509,2.110946 9.19509,2.110947 1.67887,1.855128 1.67887,1.855129 -0.43803,9.161747 -0.43803,9.161747 -1.87706,1.37254 L 345.61774,78 h -2.15388 -2.15388 l -1.54921,1.75 -1.54921,1.75 -4.61533,11.859636 -4.61532,11.859634 -4.58405,8.87556 -4.58405,8.87556 -5.6564,5.17754 -5.65641,5.17754 -7.04933,3.353 -7.04934,3.35299 -10.45066,2.072 -10.45067,2.07201 -13,-0.48979 -13,-0.48978 -9.66785,-2.13463 -9.66785,-2.13462 -6.33215,-2.5488 -6.33215,-2.54881 -4.79402,-3.04701 -4.79402,-3.04701 -4.47501,-6.27118 -4.47502,-6.27117 -2.84531,-6.34634 L 191.27131,102.5 188.55353,94.25 185.83576,86 h -8.80002 -8.80003 l -2.57706,8.25 -2.57707,8.25 -4.55186,9.34107 -4.55186,9.34107 -5.73893,5.72166 -5.73893,5.72167 -7.93852,3.29468 -7.93851,3.29469 -9.16062,1.84278 -9.16062,1.84279 z m 169.164014,-10.98374 10.56489,-0.44763 5.69202,-1.48259 5.69202,-1.48258 5.75935,-2.90731 5.75934,-2.90731 4.6555,-4.9771 4.6555,-4.9771 2.9998,-5.94258 2.9998,-5.94257 1.57845,-7.641765 L 318,86.084317 317.996,79.792158 317.992,73.5 l -1.91362,-3.138286 -1.91363,-3.138286 -5.77059,-2.729929 -5.7706,-2.729929 -9.56204,-2.006898 -9.56204,-2.006898 -15,-0.01169 -15,-0.01169 -11.5,1.710652 -11.5,1.710652 -8.98293,2.985132 -8.98294,2.985132 -3.3522,2.556852 -3.35221,2.556852 -1.91112,3.134171 -1.91112,3.13417 0.01,6.5 0.01,6.5 2.78798,8 2.78799,8.000003 3.44863,5.0804 3.44864,5.0804 3.5,3.03502 3.5,3.03502 4.05998,2.05796 4.05998,2.05797 6.03696,1.56433 6.03697,1.56434 6.90305,0.95341 6.90306,0.95341 z M 256.67815,115.884 255.5,115.768 l -1.75,-0.45733 -1.75,-0.45732 0.009,-2.67667 0.009,-2.67668 2.40705,-10.610518 2.40706,-10.610518 2.17714,-7.389482 2.17714,-7.389482 0.77343,-0.816689 0.77344,-0.81669 5.47599,1.591914 5.47599,1.591914 12.40732,7.224776 L 298.5,89.5 l 0.30751,3.702039 0.3075,3.702039 -8.3075,6.577002 -8.30751,6.57699 -4.89051,2.44314 -4.89051,2.44314 -0.85949,-0.53119 L 271,113.88197 v -3.40605 -3.40605 l 8.5,-5.65601 8.5,-5.656018 -0.0198,-0.628921 -0.0199,-0.628921 -5.12147,-3 -5.12147,-3 -3.78792,-2.705012 -3.78792,-2.705011 -0.32077,-2.65649 L 269.5,77.776997 265.58424,91.638498 261.66847,105.5 259.76239,110.75 257.8563,116 Z M 245.98748,114 h -1.61252 l -8.93748,-6.08202 -8.93748,-6.08203 -2.29706,-2.136498 -2.29706,-2.136502 0.29706,-3.031475 L 222.5,91.5 l 6.77723,-5.08223 6.77724,-5.08223 6.20001,-3.66777 L 248.4545,74 h 1.33025 1.33025 l -0.3075,4.219876 -0.3075,4.219875 -7.4931,5.759436 -7.49311,5.759435 -0.27854,0.835625 -0.27854,0.835625 4.77164,3.343194 4.77165,3.343194 2.75,2.52896 2.75,2.52896 v 2.11291 2.11291 l -1.2,1.2 -1.2,1.2 z M 95.5,131.5681 l 15,-0.41066 7.66908,-2.01711 7.66907,-2.01711 3.9474,-2.01381 3.94739,-2.01381 3.3073,-2.78291 3.30729,-2.78291 3.84099,-5.94276 3.841,-5.94276 1.98524,-6.427465 L 152,92.78933 V 85.845005 78.90068 L 150.58928,76.20034 149.17855,73.5 146.26311,70.729456 143.34768,67.958912 135.902,65.091838 128.45632,62.224763 120.47816,60.636701 112.5,59.048638 104.02623,58.024319 95.552469,57 85.026234,57.004 74.5,57.008 65,58.52847 l -9.5,1.520469 -5,1.633619 -5,1.633618 -3.598473,2.374501 -3.598473,2.374501 -1.401527,2.639531 L 35.5,73.344284 35.640542,81.422142 35.781085,89.5 l 2.677199,8 2.677199,8 3.038107,4.7525 3.038106,4.75249 5.144152,4.65035 5.144152,4.65035 5.208627,2.40152 5.208628,2.40152 6.291372,1.43502 L 80.5,131.97876 Z M 90.214816,115.93661 89.5,115.87323 l -2.37239,-0.94967 -2.37239,-0.94966 0.580016,-2.73695 0.580015,-2.73695 2.099739,-9.748933 2.099739,-9.748932 2.290862,-7.704041 2.290862,-7.70404 1.401774,-0.87493 1.401773,-0.874929 2.75,1.053152 2.75,1.053151 v 1.776011 1.776011 L 98.112202,94.607351 93.224403,111.71218 92.077018,113.85609 90.929632,116 Z m -10,-1.96271 -1.714816,-0.0261 -6,-4.10618 -6,-4.10617 -5.25,-3.98934 L 56,97.756781 V 94.901644 92.046507 L 61.25,87.86031 66.5,83.674113 74,78.837191 81.5,74.00027 83.25,74.000135 85,74 v 3.928829 3.928828 L 77.312732,87.678829 69.625463,93.5 l -0.264827,1 -0.264828,1 7.452096,5.76272 L 84,107.02544 v 1.55302 1.55302 L 82.964816,112.06574 81.929632,114 Z M 106.09114,114 h -0.97311 l -0.55455,-0.89729 -0.55456,-0.8973 0.59012,-2.8527 0.59012,-2.85271 7.61567,-5 7.61567,-5 0.29526,-1.016538 0.29527,-1.016537 -7.2391,-4.467047 -7.2391,-4.467046 -1.61539,-1.615389 -1.61539,-1.615389 0.46248,-3.151027 L 104.227,76 h 1.41502 1.41501 l 6.22149,3.123757 6.22148,3.123757 6.75,4.509299 6.75,4.509299 v 3.318072 3.318072 l -9.41567,6.564664 -9.41567,6.56466 -3.55221,1.48421 L 107.06424,114 Z M 177.31531,72.779599 189.3366,72.5 189.72405,71.332743 190.1115,70.165486 177.30575,69.802831 164.5,69.440176 l -0.79856,0.368939 -0.79856,0.36894 1.19557,1.440572 1.19557,1.440571 z M 14.721439,67 h 2.321439 L 18.168461,64.529614 19.294044,62.059228 18.024577,60.529614 16.755111,59 H 14.959343 13.163575 L 11.581787,59.606989 10,60.213978 V 62.406989 64.6 l 1.2,1.2 1.2,1.2 z M 337.5,67 h 2.1 l 1.2,-1.2 1.2,-1.2 v -2.321439 -2.321439 l -2.37351,-1.081442 -2.3735,-1.081442 -2.1265,1.138065 L 333,60.070368 V 62.335184 64.6 l 1.2,1.2 1.2,1.2 z m 10.39235,-18 h -0.77432 l -0.55327,-0.895215 -0.55327,-0.895215 1.46223,-0.561111 1.46223,-0.561111 0.50484,0.816846 0.50484,0.816846 -0.63948,0.63948 L 348.66667,49 Z M 331.8184,39.226844 331.5,41.436097 330.25813,38.68883 329.01625,35.941564 327.25813,35.220782 325.5,34.5 328.75,31.157081 332,27.814163 v 1.437931 1.437931 l 2.00054,1.810461 2.00053,1.810461 -1.93213,1.353322 -1.93214,1.353323 z M 26.047972,36 H 25.213978 L 24.650663,34.532025 24.087348,33.06405 25.130806,32.419157 26.174265,31.774265 27.2,32.8 28.225735,33.825735 27.553851,34.912868 26.881966,36 Z M 48.52808,32.271047 47.232973,35.3512 45.653472,32.296781 44.07397,29.242363 42.286985,28.521022 40.5,27.799681 42.796824,26.914743 45.093649,26.029805 46.232546,22.764903 47.371444,19.5 l 0.821938,3.16922 0.821937,3.16922 2.742341,0.924126 2.74234,0.924126 -2.338406,0.752101 -2.338406,0.7521 z M 292.21917,35 h -0.78084 L 289.96917,30.75 288.5,26.5 l -4.84492,-1.607385 -4.84491,-1.607385 4.57395,-1.151734 4.57395,-1.151734 1.52097,-2.941221 L 291,15.09932 V 13.54966 12 h 0.88871 0.88871 l 0.65802,3.507567 0.65803,3.507568 2.20326,1.394271 2.20327,1.394272 3.5,0.737862 3.5,0.737863 -4.73819,1.387114 -4.73818,1.387114 -1.51182,2.923524 L 293,31.90068 V 33.45034 35 Z m -162.86361,-2.285188 -1.00155,0.33385 -1.6851,-1.862017 -1.6851,-1.862017 2.03922,-1.845472 2.03923,-1.845472 1.70192,1.701922 1.70192,1.701921 -1.05449,1.671718 -1.0545,1.671717 z m -52.167534,-11.944154 -1.186974,0.395658 -0.633309,-1.650375 -0.633308,-1.650376 1.174423,-1.174423 1.174424,-1.174424 0.942103,1.491641 L 78.967488,18.5 78.671244,19.4375 78.375,20.375 Z M 108.30881,16.597423 107.11761,18.5 107.05881,16.773053 107,15.046106 l -2.61015,-1.710234 -2.61015,-1.710235 2.13368,-0.789296 2.13367,-0.789296 0.72647,-1.9127138 0.72648,-1.9127141 2.57135,2.8199139 2.57135,2.819914 -1.57135,1.416701 -1.57135,1.4167 z"
         id="path4" />
      <path
         style="fill:#2f2f2f"
         d="M 37,207.83651 35.5,207.70034 32.75,207.28375 30,206.86716 V 188.43358 170 l 7.75,0.0889 7.75,0.0889 8,9.13067 8,9.13068 0.245199,-4.96958 0.245199,-4.96957 0.566074,-4.25 0.566074,-4.25 H 69.061273 75 v 18.5 18.5 h -6.352518 -6.352519 l -9.634396,-9.75 -9.634395,-9.75 -0.01309,9.63337 -0.01309,9.63337 -2.25,0.60297 -2.25,0.60298 z m 58,-0.459 -10.5,0.57177 -1.25,-0.55797 L 82,206.83333 V 188.41667 170 l 4.25,-0.18248 4.25,-0.18248 6,0.23209 6,0.23209 5.17688,1.00611 5.17687,1.00611 4.03725,2.92456 4.03725,2.92457 1.53587,2.97005 1.53588,2.97006 v 4.08178 4.08178 l -1.37112,3.21788 -1.37112,3.21788 -2.46114,2.26673 -2.46114,2.26673 -5.41774,1.88614 -5.41774,1.88613 z M 96.723847,199 h 0.390513 l 4.45678,-1.12223 4.45677,-1.12223 2.48605,-2.95449 2.48604,-2.9545 v -2.4075 -2.4075 l -2.75,-3.04709 -2.75,-3.0471 -5.25,-0.60797 -5.25,-0.60797 v 9.47262 9.47263 l 0.666667,0.66666 L 96.333333,199 Z m 58.776153,8.56146 -9,0.0614 -8.75,-0.35039 -8.75,-0.35039 V 188.46107 170 h 17.5 17.5 v 4.5 4.5 H 153.5 143 v 3 3 h 9.5 9.5 v 4 4 h -9.5 -9.5 v 2.96617 2.96617 l 10.75,0.28383 10.75,0.28383 v 4 4 z m 51,0.0475 -5,0.59161 -2.05424,-2.3503 -2.05423,-2.3503 -2.77443,-3.78641 -2.77443,-3.78642 -4.17133,5.50627 -4.17134,5.50627 -7.46584,0.0302 -7.46584,0.0301 5.04095,-5.25 5.04096,-5.25 2.67488,-3.32673 2.67489,-3.3267 v -0.86872 -0.86872 l -7.10585,-8.80455 -7.10586,-8.80456 4.35586,-0.67588 4.35585,-0.67587 3,-0.0639 3,-0.0639 4.3639,5.98981 4.36389,5.9898 h 0.71989 0.71988 l 3.788,-5.5 3.78799,-5.5 H 209.12178 216 v 0.44544 0.44545 l -7,8.67911 -7,8.6791 v 1.00332 1.00332 l 7.05011,8.37213 7.05011,8.37213 -2.30011,0.009 -2.30011,0.009 z m 33.25,0.12478 -5.25,0.076 -1.75,-0.47823 -1.75,-0.47822 V 193.42668 180 h -5.5 -5.5 v -5 -5 h 18.5 18.5 v 5 5 h -6 -6 v 13.82887 13.82888 z m 37.47695,-0.26451 -15.27304,0.15132 -0.47696,-0.47696 L 261,206.66667 V 188.33333 170 h 18 18 v 4.5 4.5 H 286.5 276 v 3 3 h 9.5 9.5 v 4 4 h -9.5 -9.5 v 3 3 h 10.5 10.5 v 4 4 l -2.25,0.15898 -2.25,0.15897 z m 35.14805,-0.0851 -2.875,0.38416 -2.75,-0.45058 -2.75,-0.45057 V 188.43358 170 l 14.75,0.006 14.75,0.006 3.87773,1.0767 3.87772,1.07669 2.33161,2.33161 2.33161,2.33161 0.67556,2.69164 0.67555,2.69164 -1.6007,3.35672 -1.6007,3.35671 -4.03419,2.05809 L 336,193.04065 v 0.56935 0.56935 l 5.49766,6.16032 5.49767,6.16033 -2.74767,0.63169 -2.74766,0.63168 -4.67857,0.11832 -4.67857,0.11831 -1.34779,-1.34778 -1.34778,-1.34779 -3.92913,-5.15221 L 321.58903,195 H 319.79451 318 v 6 6 h -1.375 -1.375 z m 9.84362,-19.3857 3.28138,-0.002 3.5,-1.74844 3.5,-1.74845 v -1.97047 -1.97046 l -2.5,-1.28952 -2.5,-1.28951 -4.5,0.25998 -4.5,0.25998 -0.32046,3.3452 -0.32046,3.34519 0.53908,1.40481 0.53907,1.4048 z M 16.5,207 H 10 V 188.5 170 h 6.5 6.5 v 18.5 18.5 z m 81,-63.67807 -9,0.50431 -7.212346,-0.88255 -7.212346,-0.88254 -6.440664,-1.49369 -6.440665,-1.49369 L 52.84699,135.10605 44.5,131.13833 39.676093,126.31917 34.852186,121.5 l -3.6486,-5.9971 -3.6486,-5.99709 L 20.38829,94.002904 13.221594,78.5 10.360797,77.633096 7.5,76.766192 6,76.035583 4.5,75.304973 3.5829769,68.578503 2.6659538,61.852033 3.5884759,59.228856 4.5109981,56.605678 7.505499,54.886119 10.5,53.166559 22,50.616475 l 11.5,-2.550084 9,-1.024 9,-1.024 19.5,-0.645595 19.5,-0.645595 12.5,1.205676 12.5,1.205677 12,2.518303 12,2.518303 17.43991,5.027782 17.4399,5.027781 5.31295,-0.624433 5.31295,-0.624432 13.56362,-3.966229 13.56361,-3.966229 15.18353,-3.060857 15.18353,-3.060856 16.73187,-1.103149 16.73186,-1.103148 19.76814,1.10926 19.76813,1.109261 6,1.0719 6,1.0719 9.41032,2.118464 9.41032,2.118465 1.83968,1.83968 L 350,57 l -0.0741,5.25 -0.0741,5.25 -0.67587,4.467505 -0.67588,4.467505 -4.6636,1.316217 -4.6636,1.316216 -5.20867,13.216279 -5.20868,13.216278 -4.09719,8 -4.09719,8 -5.24375,5.27843 -5.24375,5.27843 -8.29187,3.97872 -8.29188,3.97872 -10.49491,2.08181 -10.49491,2.0818 -12,-0.51547 -12,-0.51547 -9.80523,-2.0622 -9.80523,-2.0622 -7.6127,-3.04827 -7.61271,-3.04828 -3.81796,-2.80776 -3.81797,-2.80777 -3.11703,-3.90524 -3.11703,-3.90525 -3.55247,-7 -3.55246,-7 -3.32072,-9.5 -3.32072,-9.5 -9.04078,-0.287749 -9.04079,-0.28775 -0.3752,1.28775 -0.3752,1.287749 -2.15815,7 -2.15816,7 -4.49316,9.29342 -4.49317,9.29342 -5.76827,5.76827 -5.76827,5.76827 -7.93831,3.19705 -7.93831,3.19705 -10,1.90008 -10,1.90007 z m 163.17764,-10.41879 7.17764,0.0969 7.82236,-1.04599 7.82236,-1.04598 8.00964,-3.7926 8.00963,-3.7926 4.69349,-4.69349 4.6935,-4.69349 3.05426,-6.21793 3.05426,-6.21792 1.57291,-7.5 1.5729,-7.5 -0.34191,-7.842403 -0.3419,-7.842403 -3.12719,-2.794142 -3.12719,-2.794143 -5.8612,-2.201605 -5.8612,-2.201605 -7,-1.322502 -7,-1.322502 -10.5,-0.670344 -10.5,-0.670345 -10.90397,1.13069 -10.90397,1.13069 -8.42915,1.469921 -8.42915,1.46992 -7.78658,3.002825 -7.78659,3.002824 -3.56924,3.466403 -3.56924,3.466403 -0.8475,4.261159 -0.84749,4.261159 0.74375,6.216975 0.74375,6.216975 3.06383,7.28302 3.06383,7.28303 3.36588,4.58093 3.36588,4.58093 4.7577,3.15137 4.7577,3.15136 5.59519,2.09343 5.59519,2.09343 8.51009,1.32742 8.51009,1.32742 z m -4.21808,-17.2135 -1.04043,0.33732 -1.85275,-1.35476 -1.85274,-1.35476 1.29419,-6.90872 1.29419,-6.90872 3.29889,-12.414187 3.29889,-12.414187 1.33554,-1.335538 1.33554,-1.335539 5.60999,1.971752 5.60999,1.971753 3.85457,2.193556 3.85457,2.193557 8.25,4.901538 8.25,4.901538 v 3.401327 3.401327 l -9.17597,7.091653 -9.17597,7.09166 -3.44615,1.4399 L 273.75575,114 H 272.37788 271 l 0.0153,-2.75 0.0153,-2.75 0.73468,-1.05711 0.73469,-1.05711 7.75,-5.31779 7.75,-5.317786 -0.0124,-0.625102 L 287.9753,94.5 278.86284,88.712859 269.75037,82.925718 270.31231,79.462859 270.87426,76 H 269.93713 269 v 1.508522 1.508521 l -4.54982,15.709272 -4.54982,15.709275 -1.20018,2.45836 -1.20018,2.45837 z m -9.68812,-1.73384 -1.27144,-0.0442 -3.5,-1.92083 -3.5,-1.92082 -8,-5.79515 -8,-5.795161 -0.30954,-3.188642 -0.30954,-3.188643 7.31709,-5.411245 7.31709,-5.411244 4.99245,-3.028135 4.99245,-3.028135 2.25,-0.67919 2.25,-0.67919 v 4.022447 4.022447 L 243,88 l -8,6.089881 v 0.874828 0.874827 l 7.04946,5.127344 7.04947,5.12735 0.58199,1.51666 0.582,1.51665 -1.11002,2.43623 L 248.04288,114 Z M 96,131.53702 l 16.5,-0.36226 5.45466,-1.55086 5.45465,-1.55085 6.16792,-3.03646 6.16793,-3.03646 4.2072,-4.56428 4.20721,-4.56428 3.67022,-7.68578 L 151.5,97.5 V 87 76.5 l -2,-2.644997 -2,-2.644997 -3.23514,-2.223726 -3.23515,-2.223726 -6.71314,-2.436741 -6.71315,-2.436741 -6.55171,-1.338561 L 114.5,59.21195 104.39762,57.963082 94.295233,56.714215 79.897616,57.25942 65.5,57.804626 58,59.409771 50.5,61.014916 45.09702,63.757458 39.694041,66.5 37.59702,69.334019 35.5,72.168037 35.6089,80.834019 35.7178,89.5 l 1.221176,4.5 1.221175,4.5 3.448201,7.23066 3.448201,7.23065 4.991066,4.99107 4.991066,4.99107 7.230658,3.46984 7.230657,3.46984 5,1.00807 5,1.00808 z M 91.172295,114.15357 89.5,115.80715 87.25,114.9358 85,114.06445 v -0.62168 -0.62168 l 3.022003,-13.077746 3.022002,-13.077747 2.07584,-6.834252 2.07584,-6.834251 0.962515,-0.594867 0.962514,-0.594866 2.939646,1.21764 2.93964,1.21764 v 1.585232 1.585233 L 97.922295,94.956553 92.844589,112.5 Z M 80.717219,114 H 79.391561 L 74.445781,110.8974 69.5,107.7948 62.75,102.70136 56,97.607913 V 94.827748 92.047583 L 63.25,86.596455 70.5,81.145327 76.441172,77.572664 82.382343,74 H 83.691172 85 v 3.914831 3.914832 l -5.25,3.757579 -5.25,3.75758 -2.75,2.51468 -2.75,2.51468 v 0.732677 0.732677 l 7.049465,5.127344 7.049465,5.12735 0.581995,1.51666 0.581994,1.51665 -1.110021,2.43623 L 82.042878,114 Z m 24.657051,0 H 105 v -3.81586 -3.81586 l 4.25,-2.37489 4.25,-2.37489 3.80164,-2.737968 3.80163,-2.737968 -0.13194,-0.821282 L 120.83939,94.5 112.66969,89 104.5,83.5 l -0.31387,-3.256875 -0.31387,-3.256875 1.46264,-0.561268 1.46264,-0.561268 5.35123,2.702885 5.35123,2.702886 7.75,4.961548 7.75,4.961548 v 2.810591 2.810591 l -4.75,3.921277 -4.75,3.92127 -4.73902,3.21233 -4.73901,3.21233 -4.13671,1.45951 L 105.74855,114 Z M 177.47894,72.778941 189.5,72.5 V 71.204249 69.908497 L 176.25,69.695444 163,69.482391 V 70.041196 70.6 l 1.22894,1.228941 1.22894,1.228942 z M 14.813542,66.800558 17.298276,66.5 18.394023,64.75 19.48977,63 18.385899,61.25 17.282027,59.5 H 13.891014 10.5 l -0.326764,2.305042 -0.3267637,2.305042 1.2411677,1.495516 1.241168,1.495516 z M 336.85612,67 h 2.89899 l 1.19921,-1.444958 1.19921,-1.444958 -0.32677,-2.284918 -0.32676,-2.284919 -2.77159,-0.970757 -2.77159,-0.970758 -2.15824,2.158242 -2.15824,2.158242 1.15839,2.542392 L 333.95712,67 Z M 348,49 h -0.88197 L 346.5,48 345.88197,47 H 348 350.11803 L 349.5,48 348.88197,49 Z M 332.18618,37.974595 331.5,39.778383 l -2.68606,-2.945111 -2.68607,-2.945112 1.398,-0.536461 1.398,-0.536461 0.60545,-1.907619 L 330.13478,29 H 331.06739 332 v 1.464816 1.464816 l 2.1599,1.155946 2.15991,1.155945 -1.72372,0.964642 -1.72372,0.964643 z m -305.066092,-3.168901 -0.79663,1.288975 -1.210288,-1.458307 -1.210287,-1.458307 1.135691,-0.701895 1.135691,-0.701895 0.871227,0.871227 0.871226,0.871226 z M 48.193593,31.915866 47.5,33.700988 44.391296,30.350494 41.282593,27 h 1.373402 1.373402 l 1.861561,-3.061091 1.86156,-3.061091 0.653659,2.604382 0.653658,2.604383 2.183034,0.807557 2.183034,0.807556 -2.269358,1.214524 -2.269359,1.214524 z M 292,34 h -0.84109 l -0.66635,-3.033884 -0.66636,-3.033885 -2.21537,-1.45157 -2.21538,-1.451571 -3.37629,-0.675259 -3.3763,-0.675259 4.21026,-1.243142 4.21026,-1.243142 1.40403,-1.165242 1.40403,-1.165242 0.64374,-2.930902 L 291.15891,13 H 292.07946 293 v 1.865141 1.865142 l 2.00397,2.547631 2.00396,2.547631 4.24604,0.754649 4.24603,0.754649 -3.94988,0.858481 -3.94988,0.85848 -1.74344,1.57779 -1.74344,1.577791 -0.63613,2.896307 L 292.84109,34 Z M 130.71125,31.315725 129.5,32.907731 127.68426,31.545556 125.86853,30.183381 127.17481,28.09169 128.48109,26 h 0.72427 0.72427 l 0.99644,1.86186 0.99644,1.861859 z M 76.861626,21 H 75.93723 l -0.557228,-1.452113 -0.557228,-1.452113 0.677641,-1.096445 0.67764,-1.096446 1.351532,1.121672 1.351531,1.121671 L 78.33357,19.573113 77.786022,21 Z M 108.25,16.944671 107.5,16.889342 105.46531,14.194671 103.43063,11.5 105.7049,9.2962826 107.97917,7.0925651 109.02477,9.0462826 110.07037,11 111.78518,11.05245 113.5,11.1049 111.25,12.67442 109,14.24394 V 15.621972 17 Z"
         id="path3" />
      <path
         style="fill:#010101"
         d="M 16.5,207 H 10 V 188.5 170 H 16.5 23 V 188.5 207 Z M 37,207 H 31 V 188.5 170 l 6.75,0.002 6.75,0.002 8.483145,9.41251 8.483144,9.41251 0.766856,-0.47394 L 63,187.88197 V 178.94098 170 h 6 6 V 188.5 207 H 68.635933 62.271867 L 53.385933,197.52366 44.5,188.04732 43.75,188.02366 43,188 v 9.5 9.5 z M 94.75,206.85042 82,207.20085 V 188.60042 170 l 9.75,0.0156 9.75,0.0156 5.76025,1.35548 5.76024,1.35548 3.91614,2.71389 3.91615,2.71389 1.57361,3.31614 1.57361,3.31614 v 3.38698 3.38698 l -2.25,4.46189 -2.25,4.46189 -6,3 -6,3 z M 97.532119,199 h 2.532121 l 3.38023,-1.41235 3.38023,-1.41235 2.08765,-2.08765 L 111,192 v -3.06574 -3.06574 l -1.02964,-1.92391 -1.02965,-1.92391 -2.92069,-1.51035 L 103.09932,179 H 99.04966 95 v 10 10 z M 146.5,207 H 129 V 188.5 170 h 17.5 17.5 v 4.5 4.5 H 153.5 143 v 3 3 h 9.5 9.5 v 4 4 h -9.5 -9.5 v 2.92041 2.9204 l 6.47741,0.69367 6.47741,0.69368 2.44313,-0.61319 2.44312,-0.61319 1.57947,0.6061 1.57946,0.6061 V 203.60699 207 Z m 29.87061,0 h -6.5646 l 2.847,-3.41869 2.84699,-3.41868 4.87147,-5.58132 4.87148,-5.58131 -4.39479,-5.25 -4.39479,-5.25 -2.82767,-3.81568 -2.82767,-3.81568 0.35098,-0.29436 0.35099,-0.29435 6.18015,-0.61733 6.18015,-0.61733 2.31985,2.86372 2.31985,2.86373 2.8548,3.69155 2.8548,3.69155 2.53758,-3.82791 2.53759,-3.82791 2.03193,-2.25 2.03193,-2.25 h 6.44437 6.44438 l -2.80143,3.75 -2.80144,3.75 -4.92328,5.75818 -4.92329,5.75818 5.85603,7.1926 5.85603,7.19259 1.3067,1.79923 1.30671,1.79922 h -7.49673 -7.49672 l -3.80998,-5.48815 -3.80998,-5.48816 -0.62985,-0.0118 -0.62986,-0.0119 -4.15254,5.5 -4.15254,5.5 z m 62.15842,0 h -6.47098 L 231.77903,193.75 231.5,180.5 l -5.80269,-0.30148 -5.80269,-0.30147 0.30269,-4.69853 L 220.5,170.5 l 16,-0.28587 16,-0.28587 2.25,0.55492 2.25,0.55492 V 175.51905 180 h -6 -6 v 13.5 13.5 z m 41.03134,0 H 262 v -18.52361 -18.52362 l 17.25,0.27362 17.25,0.27361 0.3075,4.25 0.3075,4.25 h -11.12392 -11.12392 l 0.31642,2.75 0.31642,2.75 9.75,0.28621 9.75,0.28621 V 189.03621 193 h -10 -10 v 2.96617 2.96617 l 10.75,0.28383 10.75,0.28383 0.31037,3.75 0.31036,3.75 z M 311,207 h -7 v -17.86408 -17.86407 l 4.63957,-0.63593 L 313.27914,170 h 8.78414 8.78414 l 5.04734,1.16507 5.04734,1.16506 2.72895,2.84841 2.72895,2.84841 v 3.45918 3.45919 l -2.45,2.61466 -2.45,2.61466 -3.4096,1.42834 -3.40961,1.42834 2.38667,2.73434 2.38667,2.73434 3.98114,4.25 3.98115,4.25 h -8.64082 -8.64082 l -0.58189,-1.75 -0.58188,-1.75 -4.3088,-4.91822 -4.30881,-4.91823 -1.1767,0.72724 L 318,195.11803 V 201.05902 207 Z m 11.86514,-19 h 4.86514 l 2.63486,-2.07258 L 333,183.85484 v -1.37072 -1.37071 L 330.77749,179.5567 328.55499,178 H 323.27749 318 v 5 5 z M 267,143.51554 l -10.5,0.294 -3.5,-0.46221 -3.5,-0.46222 -10,-1.96449 -10,-1.96448 -9,-3.68608 -9,-3.68608 -5.51137,-5.57359 -5.51136,-5.57359 -3.6113,-6.9684 -3.6113,-6.9684 -3.29705,-9.5 -3.29705,-9.5 -0.94138,-1.236319 -0.94137,-1.23632 -8.13891,0.512857 -8.13891,0.512856 -1.25,1.664593 -1.25,1.664592 v 1.84657 1.846569 l -3.51997,9.114372 -3.51998,9.11437 -3.48241,5.73267 -3.48241,5.73267 -4.24762,4.27763 -4.24761,4.27762 -7.44219,3.45671 -7.44219,3.45672 -9.55781,2.10215 -9.55781,2.10216 -16.5,0.0288 -16.5,0.0288 -7.5,-1.87252 -7.5,-1.87251 -8,-3.73045 -8,-3.73044 -4.669007,-4.16073 -4.669006,-4.16074 -3.874605,-6.2363 L 28.412778,110.5 24.78198,103 21.151182,95.5 18.575591,89.811925 16,84.123851 V 83.196784 82.269717 L 13.92742,79.634859 11.85484,77 H 8.9626036 6.0703675 L 5.1667162,75.25 4.2630649,73.5 3.5989398,67.400825 2.9348148,61.301649 3.8678443,58.847596 4.8008739,56.393542 8.6504369,54.718082 12.5,53.042621 l 11,-2.436012 11,-2.436011 5,-0.586178 5,-0.586178 L 63.729771,45.932291 82.959542,44.86634 98.729771,45.996951 114.5,47.127562 130,50.54193 145.5,53.956299 158.75443,57.97815 172.00886,62 h 5.27118 5.27119 l 13.47439,-4.028836 13.47438,-4.028836 17,-3.584136 17,-3.584136 26.7703,-0.511822 26.7703,-0.511822 12.2297,1.155747 12.2297,1.155747 12.79088,2.809924 12.79087,2.809924 1.20913,1.219861 1.20912,1.219862 -0.22507,9.056765 -0.22508,9.056765 -1.06055,1.277889 -1.06056,1.27789 -3.36389,0.631069 -3.36388,0.63107 -0.99012,1.223537 -0.99012,1.223538 -4.48436,11.5 -4.48435,11.5 -3.87601,7.96699 -3.87601,7.967 -5.64048,6.04336 -5.64047,6.04335 -6.85953,3.62072 -6.85952,3.62073 -9.5,2.22969 -9.5,2.22969 z m -167,-11.2731 9.5,-0.50411 7.41033,-1.86926 7.41033,-1.86926 5.09202,-2.3312 5.09202,-2.33121 4.73225,-4.73225 4.73225,-4.73224 3.39336,-7.18646 L 150.75591,99.5 151.87796,94.200779 153,88.901558 152.978,84.700779 152.956,80.5 l -1.8692,-4.116088 -1.86919,-4.116087 -3.37146,-2.571539 -3.37146,-2.571539 -8.45789,-3.118523 -8.45789,-3.118522 L 112.5295,58.835362 99.5,56.783022 86,56.701507 l -13.5,-0.08151 -10,1.777539 -10,1.777539 -5.776919,2.561109 -5.776919,2.561109 L 37.973081,68.68344 35,72.069592 35.01562,79.284796 35.03124,86.5 l 1.345288,5.5 1.345288,5.5 2.216536,5.5 2.216536,5.5 3.850976,5.11229 3.850976,5.11229 4.958751,3.64005 4.958752,3.64006 6.862827,2.62669 6.862828,2.6267 8.5,0.74424 8.5,0.74424 z M 89.301027,114.92105 87.5,114.84211 l -1.109077,-0.45742 -1.109077,-0.45741 0.739586,-3.71364 0.739586,-3.71364 2.145789,-9.5 2.145789,-9.5 2.119376,-7.25 2.119375,-7.25 2.604326,0.01531 2.604327,0.01531 1.46706,0.927851 1.46705,0.927852 -2.32665,7.806835 L 98.780801,90.5 96.42021,99.210774 94.059619,107.92155 92.580836,111.46077 91.102053,115 Z M 80.5,113.58315 l -1,0.24109 -3.5,-2.10128 -3.5,-2.10129 -7.119607,-5.30126 -7.119608,-5.301257 -1.24206,-1.49659 -1.24206,-1.496591 0.60627,-2.262986 L 56.989206,91.5 63.488843,86.625219 69.98848,81.750438 75.24424,78.400815 80.5,75.051192 82.880842,75.025596 85.261685,75 84.673606,78.623903 84.085528,82.247805 83.792764,82.461113 83.5,82.67442 l -7.953067,5.820114 -7.953067,5.820114 4.453067,3.899518 4.453067,3.899514 2.720356,1.45351 2.720355,1.45351 0.964924,1.80298 0.964925,1.80298 -1.18528,2.3577 -1.18528,2.3577 z M 107.25537,113 h -2.38209 l 0.31336,-3.19213 0.31336,-3.19214 5.5,-3.25796 5.5,-3.25795 3,-2.61082 3,-2.610817 -1,-0.442365 -1,-0.442365 -8,-5.246726 -8,-5.246727 -0.25905,-2.5 -0.25905,-2.5 0.88633,-1.360459 0.88634,-1.360459 8.87271,4.623627 8.87272,4.623627 4.75,3.496548 4.75,3.496548 v 2.431557 2.431557 l -5.50137,4.308724 -5.50137,4.30873 -6.1799,3.75 -6.17991,3.75 z M 260.5,132.83801 l 9,0.10024 7.48933,-0.97176 7.48932,-0.97175 7.12541,-3.38384 7.1254,-3.38384 5.43248,-5.43247 5.43247,-5.43247 2.65796,-5.61372 2.65797,-5.61371 1.54822,-5.97478 1.54822,-5.974778 0.18015,-8.377561 0.18016,-8.37756 -1.88687,-3.194202 -1.88686,-3.194203 -5.45147,-2.58115 -5.45147,-2.58115 -5.59521,-1.404604 L 292.5,59.070097 284.02623,58.035049 275.55247,57 267.02623,57.0188 258.5,57.03759 244,58.923779 l -14.5,1.88619 -8.90192,3.0922 -8.90192,3.092201 -3.46692,2.644347 -3.46691,2.644348 -1.99356,4.506755 -1.99355,4.506756 0.6571,5.808022 0.65711,5.808023 2.44609,7.191819 2.4461,7.19182 3.07956,4.79909 3.07957,4.79908 4.05459,3.66308 4.05458,3.66308 5.22511,2.31079 5.22511,2.31079 4.39993,1.2118 4.39993,1.2118 5.5,0.736 5.5,0.736 z m -3.77568,-16.9014 -0.22432,-0.0634 -2.25,-0.90439 -2.25,-0.90439 v -0.9522 -0.95223 l 2.46615,-11.33 2.46615,-11.33 2.3809,-7.949017 2.3809,-7.949016 1.19586,-0.398621 1.19587,-0.398621 2.57703,0.646794 2.57704,0.646795 -0.61345,3.836254 -0.61344,3.836254 -4.11621,14.364589 -4.11621,14.364589 -1.41598,2.75 -1.41597,2.75 z m -9.76545,-2.1672 -1.49981,0.28883 -6.97953,-4.64806 L 231.5,104.76212 226.75,101.17557 222,97.589028 V 94.97516 92.361293 l 6.92475,-5.165482 6.92474,-5.165482 5.82526,-3.512594 5.82525,-3.512594 1.75,-0.0026 L 251,75 v 3.294514 3.294514 l -5.25,3.917697 -5.25,3.917697 -3.27167,2.776263 -3.27167,2.776263 5.64002,4.261526 5.64001,4.261526 2.6113,2.14591 2.61131,2.14591 -1.00032,2.84437 -1.00031,2.84438 z M 274.25,113.46355 272,114.13478 v -3.48415 -3.48414 l 8,-5.60575 8,-5.605747 v -0.887855 -0.887855 l -6.75,-4.214916 -6.75,-4.214915 -2.19961,-2.001697 -2.1996,-2.001697 0.59324,-3.123029 0.59325,-3.123029 0.26666,-0.326963 0.26665,-0.326963 6.33971,3.406092 6.3397,3.406092 4.86263,2.920871 4.86263,2.920871 2.38737,1.82258 L 299,91.14516 v 2.378972 2.378973 l -7.25,6.130745 -7.25,6.13075 -4,2.31386 -4,2.31386 z M 178.48089,73.566443 189.46178,73.114664 189.80589,72.082332 190.15,71.05 190.0766,70.363947 190.00321,69.677893 176.5016,69.543423 163,69.408954 v 1.327747 1.327747 l 2.25,0.976888 2.25,0.976887 z M 13.777494,68 h 0.777494 L 16.777494,66.443296 19,64.886592 V 62.966349 61.046106 L 16.5,59.408043 14,57.76998 11.5,59.408043 9,61.046106 V 62.523053 64 l 2,2 2,2 z M 337.72251,68 H 339 l 2,-2 2,-2 v -1.171259 -1.17126 L 341.34501,59.828741 339.69002,58 h -2.27358 -2.27358 L 333.57143,59.571429 332,61.142857 v 1.871868 1.871867 l 2.22251,1.556704 L 336.44501,68 Z m 10.33651,-19 h -0.94099 L 346.5,48 345.88197,47 H 347.44098 349 v 1 1 z m -16.21329,-11.192082 -0.38434,1.307917 -2.07694,-2.388688 -2.07694,-2.388687 1.84625,-2.280014 1.84624,-2.280014 1.88844,2.332119 1.88843,2.33212 -1.2734,1.028664 L 332.23007,36.5 Z M 25.940983,35 H 25 v -1 -1 h 1.559017 1.559017 L 27.5,34 26.881966,35 Z M 46.708481,33 H 46.32103 L 45.181954,30.5 44.042878,28 H 43.066893 42.090909 L 44.545455,25.545455 47,23.090909 l 2.316832,2.316832 2.316831,2.316832 -2.268865,2.637713 L 47.095932,33 Z m 245.168179,0 h -0.72156 l -1.15231,-3.491539 -1.15231,-3.491539 -4.64818,-1.355346 -4.64818,-1.355346 3.67961,-0.690299 3.67961,-0.690299 2.04333,-2.597675 L 291,16.730283 V 15.365141 14 h 0.79911 0.79911 l 1.24023,3.429779 1.24022,3.429778 4.10556,1.368521 4.10557,1.368521 -4.08859,1.22497 -4.08858,1.22497 -1.2572,3.476731 L 292.59822,33 Z M 129.62244,32 h -1.37755 l -1.11891,-1.348208 -1.11892,-1.348208 1.82762,-1.653974 1.82762,-1.653974 0.66885,0.668849 L 131,27.333333 V 29.666667 32 Z M 77.166667,20 H 76.333333 L 75.666667,19.333333 75,18.666667 V 17.833333 17 H 76.5 78 V 18.5 20 Z M 108.00945,15.968575 107.5,15.93715 105.70332,13.468575 103.90663,11 h 1.07891 1.07891 l 0.78059,-2.1101476 0.7806,-2.1101476 1.70277,2.5987553 1.70277,2.5987549 -1.25614,2.011393 L 108.51891,16 Z"
         id="path2" />
    </g>
  </g>
</svg>
